<?xml version="1.0" encoding="UTF-8" standalone="no"?>
<!DOCTYPE svg PUBLIC "-//W3C//DTD SVG 1.1//EN" "http://www.w3.org/Graphics/SVG/1.1/DTD/svg11.dtd">
<svg width="100%" height="100%" viewBox="0 0 348 360" version="1.1" xmlns="http://www.w3.org/2000/svg" xmlns:xlink="http://www.w3.org/1999/xlink" xml:space="preserve" xmlns:serif="http://www.serif.com/" style="fill-rule:evenodd;clip-rule:evenodd;stroke-linejoin:round;stroke-miterlimit:2;">
    <g transform="matrix(1,0,0,1,-338.171,-120.392)">
        <g transform="matrix(1.92839,0,0,1.45649,-665.414,-327.072)">
            <path d="M683.911,379.202C683.729,379.231 683.266,379.161 683.288,379.266C683.606,379.205 683.926,379.412 683.911,379.202ZM664.499,380.489C664.68,380.485 665.516,380.483 665.12,380.426C664.936,380.43 664.102,380.432 664.499,380.489ZM683.784,383.737C684.006,383.754 682.85,383.86 683.286,383.846C683.297,383.844 684.288,383.774 683.784,383.737ZM683.782,386.438C683.489,386.446 683.417,386.364 683.038,386.409C682.86,386.565 683.78,386.51 683.782,386.438ZM683.78,391.405C683.377,391.442 683.157,391.405 683.034,391.327C683.071,391.42 682.866,391.426 682.786,391.475C683.051,391.457 684.112,391.481 683.78,391.405ZM664.247,381.653C663.829,381.709 663.399,381.524 663.129,381.68C663.665,381.7 663.852,381.721 663.875,381.854C663.924,381.76 664.358,381.803 664.247,381.653ZM659.147,381.1C658.911,381.116 658.874,381.053 658.649,381.063C658.45,381.204 659.186,381.186 659.147,381.1ZM682.665,379.327C682.897,379.317 683.083,379.286 683.163,379.219C682.942,379.235 682.54,379.186 682.665,379.327ZM657.78,381.518C657.958,381.569 658.083,381.563 658.151,381.461C657.993,381.463 657.979,381.405 657.78,381.422L657.78,381.518ZM663.75,382.436C664.034,382.442 664.217,382.412 664.249,382.327C663.965,382.321 663.782,382.352 663.75,382.436ZM659.645,381.09C659.45,381.26 660.477,381.297 660.391,381.12C660.012,381.162 660.026,381.043 659.645,381.09ZM677.94,369.364C677.463,369.325 676.905,369.467 677.444,369.518C677.471,369.481 677.446,369.424 677.567,369.42C677.518,369.516 678.133,369.477 677.94,369.364ZM647.948,382.432C648.383,382.385 648.889,382.555 649.192,382.399C648.922,382.381 648.174,382.311 647.948,382.432ZM678.184,381.077C678.6,381.114 679.176,381.086 678.682,381.256C678.926,381.266 678.93,381.186 679.055,381.151C679.112,381.305 679.542,381.305 679.803,381.373C679.495,381.186 680.034,381.219 680.176,381.077C679.27,381.358 679.063,380.885 678.184,381.077ZM649.69,382.438C649.795,382.481 650.483,382.522 650.561,382.418C650.176,382.489 649.87,382.289 649.69,382.438ZM651.057,382.502C651.53,382.42 651.297,382.627 651.682,382.582C651.643,382.489 651.848,382.483 651.93,382.432C651.696,382.448 650.7,382.428 651.057,382.502ZM675.075,379.414C676.27,379.491 677.192,379.432 678.184,379.387C677.334,379.352 675.764,379.356 675.075,379.414ZM679.553,381.668C678.534,381.711 678.163,381.573 677.688,381.762C678.379,381.657 679.354,381.887 679.553,381.668ZM676.442,382.274C676.979,382.139 677.459,382.256 677.811,382.096C677.594,382.077 676.424,382.055 676.442,382.274ZM677.315,380.856C677.096,380.889 676.584,380.815 676.569,380.92C676.944,380.924 677.286,381.014 677.315,380.856ZM677.688,381.086C677.438,381.01 676.68,381.039 676.567,381.162C676.85,381.188 677.61,381.262 677.688,381.086ZM676.567,381.789C676.85,381.795 677.034,381.766 677.067,381.68C676.846,381.698 676.442,381.649 676.567,381.789ZM677.44,380.323C676.887,380.342 675.635,380.184 675.448,380.37C675.901,380.405 676.864,380.448 677.44,380.323ZM663.502,383.985C663.045,384.108 663.247,384.235 662.629,384.342C663.022,384.311 663.116,384.401 663.377,384.42C663.415,384.327 663.209,384.33 663.127,384.284C663.233,384.176 663.922,384.284 664,384.164C663.489,384.161 663.215,384.19 663.502,383.985ZM676.319,381.12C676.063,381.034 675.504,381.106 675.323,381.192C675.817,381.106 676.084,381.356 676.321,381.217C676.168,381.209 676.243,381.164 676.319,381.12ZM674.2,394.047C673.608,394.034 673.051,394.004 672.334,394.043C672.475,394.192 672.137,394.166 672.084,394.245C672.573,394.172 673.018,394.368 673.329,394.211C673.161,394.098 672.954,394.309 672.831,394.176C673.116,394.034 674.02,394.291 674.2,394.047ZM676.813,394.225C676.637,394.123 676.012,394.061 675.817,394.2C676.266,394.268 676.42,394.178 676.813,394.225ZM677.686,390.877C677.993,390.875 678.288,390.871 678.307,390.766C678.071,390.791 677.557,390.717 677.686,390.877ZM680.793,394.707C681.042,394.721 681.717,394.805 681.913,394.68C681.665,394.666 680.991,394.582 680.793,394.707ZM677.682,394.157C677.491,394.082 677.102,394.147 676.936,394.223C677.155,394.188 677.667,394.262 677.682,394.157ZM668.102,392.842C667.87,392.858 667.686,392.883 667.604,392.952C667.827,392.936 668.227,392.985 668.102,392.842ZM659.77,384.026C659.561,384.032 659.354,384.037 659.147,384.041C658.956,384.196 659.959,384.172 659.77,384.026ZM678.563,369.686C678.208,369.664 677.932,369.522 677.815,369.752C678.034,369.717 678.547,369.793 678.563,369.686ZM663.497,393.196C663.797,393.143 664.1,393.094 664.37,393.03C663.895,393.018 663.592,393.069 663.497,393.196ZM665.989,392.799C666.338,392.817 667.083,392.922 667.356,392.813C666.827,392.702 666.436,392.758 665.989,392.799ZM637.127,366.537C636.999,366.489 636.239,366.459 636.133,366.561C636.465,366.526 636.911,366.684 637.127,366.537ZM632.151,365.356C632.532,365.381 632.606,365.297 632.899,365.289C632.907,365.205 632.872,365.139 632.774,365.1C632.504,365.162 632.297,365.248 632.151,365.356ZM649.696,367.536C650.209,367.504 650.409,367.704 650.692,367.514C650.229,367.561 649.836,367.336 649.696,367.536ZM669.721,387.983C669.774,388.073 669.768,388.188 670.094,388.166C670.19,387.991 670.879,388.034 671.09,387.901C670.475,387.989 670.315,387.885 669.721,387.983ZM656.784,384.098C657.081,384.063 657.686,384.137 657.778,384.026C657.333,384.075 656.924,383.899 656.784,384.098ZM628.792,368.621C629.202,368.629 630.172,368.621 630.161,368.539C629.741,368.579 629.002,368.504 628.792,368.621ZM658.772,384.245C658.825,384.334 658.817,384.452 659.147,384.428C659.168,384.307 658.956,384.282 658.772,384.245ZM637.127,368.659C637.317,368.733 638.844,368.696 638.622,368.623C638.026,368.707 637.493,368.512 637.127,368.659ZM628.417,368.821C628.768,368.823 629.645,368.895 630.034,368.832C629.633,368.801 628.829,368.686 628.417,368.821ZM678.682,387.235C678.475,387.241 678.266,387.246 678.057,387.252C677.411,387.297 678.309,387.315 678.557,387.287C679.28,387.231 680.167,387.307 680.547,387.239C680.643,387.225 680.692,387.196 680.672,387.139C680.084,387.135 679.633,387.18 679.18,387.223C679.012,387.227 678.848,387.231 678.682,387.235ZM665.956,385.377C666.184,385.399 665.637,385.537 665.991,385.516C666.991,385.516 667.659,385.526 668.852,385.448C668.428,385.194 666.893,385.411 665.956,385.377ZM676.192,387.344C676.262,387.68 677.459,387.467 677.686,387.307C677.213,387.221 676.862,387.366 676.192,387.344ZM668.602,385.647C668.448,385.557 667.831,385.543 667.731,385.715C667.989,385.682 668.549,385.756 668.602,385.647ZM667.483,385.914C667.295,385.92 666.975,385.748 666.86,385.881C667.141,385.838 667.258,386.094 667.483,385.914ZM666.487,386.082C666.364,386.086 666.239,386.09 666.114,386.092C666.417,386.03 665.975,385.868 665.866,386.002C666.01,386.006 666,386.075 665.989,386.143C666.176,386.129 666.448,386.149 666.487,386.082ZM653.672,382.485C653.452,382.434 652.954,382.498 652.553,382.416C652.657,382.51 653.567,382.705 653.672,382.485ZM679.303,383.893C679.629,383.918 680.411,383.899 680.672,383.764C680.331,383.885 679.524,383.662 679.303,383.893ZM671.467,377.184C671.434,377.096 672.344,377.268 672.463,377.116C672.344,377.1 671.215,377.041 671.467,377.184ZM676.817,383.133C676.647,383.121 676.579,383.071 676.319,383.098C676.12,383.237 676.856,383.217 676.817,383.133ZM681.668,382.293C682.547,382.362 681.92,382.03 682.043,382.043C682.202,382.043 682.215,382.1 682.415,382.082C682.411,382.016 682.475,381.975 682.54,381.934C682.208,381.944 681.875,381.952 681.545,381.959C681.506,382.055 681.711,382.049 681.793,382.096C680.596,382.034 679.852,381.967 678.309,382.037C678.208,382.174 678.485,382.157 678.434,382.276C677.465,382.364 675.608,382.455 674.823,382.313C674.79,382.471 674.352,382.512 674.202,382.375C674.143,382.434 674.071,382.489 673.954,382.528C671.073,382.637 669.088,382.774 666.987,382.889C666.553,382.912 665.801,382.78 665.491,383.02C667.434,383.041 669.981,382.721 671.963,382.961C672.168,382.955 672.034,382.827 672.211,382.811C675.749,382.854 679.116,382.282 681.42,382.299C681.53,382.227 681.518,382.11 681.917,382.143C681.956,382.237 681.749,382.243 681.668,382.293ZM676.069,384.405C676.356,384.381 676.651,384.362 676.567,384.2C676.29,384.227 676.122,384.297 676.069,384.405ZM677.563,384.321C677.43,384.268 676.991,384.317 676.817,384.387C677.194,384.358 677.45,384.498 677.563,384.321ZM680.176,381.028C680.34,381.03 681.077,381.012 680.674,380.967C680.508,380.965 679.774,380.981 680.176,381.028ZM666.614,377.209C666.76,377.196 666.967,377.205 666.987,377.149C666.792,377.149 666.891,377.03 666.614,377.063L666.614,377.209ZM680.172,389.901C680.547,389.989 681.286,389.877 681.542,389.77C681.081,389.813 680.26,389.721 680.172,389.901ZM683.159,390.745C682.59,390.778 681.754,390.717 681.542,390.879C682.11,390.875 683.202,390.811 683.159,390.745ZM685.524,389.676C685.338,389.688 685.063,389.668 685.026,389.735C685.19,389.793 685.489,389.787 685.524,389.676ZM686.397,385.989C686.629,385.891 686.409,385.866 686.395,385.748C686.106,385.819 685.696,385.846 685.401,385.914C685.797,385.914 685.948,386.012 686.397,385.989ZM678.557,382.995C678.176,382.969 678.319,382.967 677.936,383.01C677.999,383.161 677.641,383.213 678.059,383.248C677.981,383.037 678.436,383.133 678.557,382.995ZM672.461,383.721C672.614,383.873 672.057,383.768 672.211,383.918C672.702,383.871 672.858,383.926 673.083,383.85C672.864,383.813 672.719,383.743 672.461,383.721ZM669.848,383.11C669.823,383.278 669.409,383.301 669.35,383.459C669.588,383.473 669.885,383.463 669.848,383.59C669.504,383.547 668.956,383.586 668.602,383.668C668.858,383.678 668.846,383.793 669.1,383.801C669.174,383.637 669.827,383.678 670.221,383.629C670.327,383.682 670.385,383.754 670.346,383.868C670.754,383.782 671.225,384.014 671.215,383.799C671.102,383.672 670.827,383.877 670.469,383.817C670.479,383.733 670.442,383.666 670.346,383.627C670.561,383.633 671.083,383.518 670.717,383.473C670.711,383.526 670.561,383.516 670.592,383.428C670.926,383.42 671.258,383.412 671.588,383.403C671.206,383.586 672.254,383.467 672.336,383.385C672.1,383.371 671.586,383.469 671.713,383.305C672.836,383.239 673.92,383.278 674.327,383.049C672.95,383.135 671.256,383.373 669.848,383.11ZM673.456,383.698C673.239,383.715 672.786,383.557 672.834,383.76C673.016,383.731 673.475,383.799 673.456,383.698ZM670.717,383.088C670.887,383.1 670.956,383.149 671.215,383.123C671.311,382.955 670.743,382.948 670.717,383.088ZM669.475,383.022C669.288,383.034 669.014,383.014 668.977,383.082C669.215,383.053 669.512,383.217 669.475,383.022ZM672.086,383.584C671.647,383.571 671.448,383.641 671.34,383.748C671.547,383.678 672.133,383.746 672.086,383.584ZM670.965,385.446C670.938,385.354 671.106,385.334 671.092,385.248C670.717,385.258 670.346,385.266 669.973,385.276C670.008,385.452 670.75,385.34 670.965,385.446ZM670.467,384.637C670.19,384.412 669.784,384.864 670.467,384.637ZM672.209,386.284C672.206,386.215 672.27,386.176 672.336,386.137C671.86,386.139 671.428,386.159 671.215,386.258C671.678,386.213 671.75,386.329 672.209,386.284ZM671.713,384.799C671.811,384.807 671.858,384.836 671.838,384.893C672.149,384.893 672.227,384.809 672.336,384.737C672.155,384.768 671.692,384.696 671.713,384.799ZM671.463,385.914C671.215,385.901 670.542,385.817 670.344,385.942C670.499,386.102 671.206,385.995 671.463,385.914ZM674.7,384.391C675.038,384.352 675.688,384.428 675.819,384.315C675.725,384.305 675.674,384.278 675.696,384.223C675.614,384.34 674.481,384.323 674.7,384.391ZM685.774,386.389C685.665,386.536 685.586,386.282 685.276,386.352L685.276,386.498C685.512,386.43 686.102,386.526 685.774,386.389ZM671.342,380.469C671.5,380.53 671.952,380.528 671.963,380.405C671.674,380.397 671.428,380.315 671.342,380.469ZM673.584,376.702C673.213,376.926 671.885,376.883 671.342,376.661C670.977,376.709 671.631,376.725 671.467,376.85C671.163,376.985 670.258,376.727 670.098,376.979C672.006,376.881 672.985,377.041 674.204,376.83C673.752,376.889 674.147,376.598 673.584,376.702ZM671.59,379.932L671.59,379.739C671.112,379.713 671.112,379.983 671.59,379.932ZM671.463,382.297C671.885,382.358 672.481,382.346 672.584,382.223C672.059,382.297 671.598,382.1 671.463,382.297ZM672.461,381.311C672.204,381.168 672.297,381.162 672.088,380.983C671.448,381.086 671.022,380.801 670.844,381.01C671.221,381.02 672.047,381.09 671.838,381.18C671.825,381.063 671.426,381.18 671.465,381.237C671.965,381.207 672.034,381.307 671.713,381.377C671.971,381.409 672.958,381.366 673.333,381.289C673.063,381.188 672.909,381.34 672.461,381.311ZM671.465,380.659C670.583,380.727 667.885,380.584 667.731,380.797C668.565,380.848 670.879,381.008 671.465,380.659ZM674.204,381.266C674.561,381.268 674.834,381.241 674.95,381.153C674.668,381.049 674.403,381.2 674.204,381.266ZM681.545,380.801C681.192,380.819 680.692,380.782 680.674,380.918C681.145,380.836 680.913,381.045 681.295,381C681.206,380.871 681.543,380.897 681.545,380.801ZM669.973,381.756C670.282,381.657 670.483,381.817 670.717,381.69C670.627,381.653 669.858,381.579 669.973,381.756ZM674.206,381.123C674.256,381.012 674.887,381.114 674.825,380.963C674.661,380.858 673.93,381.084 674.206,381.123ZM669.227,381.002C668.834,381.014 668.288,380.846 667.983,380.983C668.434,381.028 668.821,381.19 669.227,381.002ZM673.954,381.178C674.008,381.311 673.491,381.069 673.458,381.237C673.62,381.284 673.917,381.274 674.079,381.321C674.059,381.262 674.1,381.182 673.954,381.178ZM671.838,380.746C672.036,380.842 672.709,380.741 672.959,380.815C672.954,380.748 673.018,380.707 673.084,380.668C672.584,380.762 671.942,380.506 671.838,380.746ZM676.944,377.44C676.747,377.424 676.836,377.291 676.444,377.356C676.313,377.481 676.864,377.559 676.944,377.44ZM676.944,376.862C676.497,376.799 676.071,376.778 675.573,376.895C676.168,376.895 676.483,376.963 676.944,376.862ZM678.809,376.721C678.415,376.752 678.764,376.483 678.311,376.539C678.133,376.713 678.661,376.838 678.809,376.721ZM676.071,378.424C676.52,378.37 677.969,378.452 678.311,378.325C677.561,378.305 676.721,378.262 676.071,378.329C676.221,378.334 676.149,378.381 676.071,378.424ZM675.698,377.518C675.17,377.264 675.247,377.645 675.698,377.518ZM669.848,380.071C669.774,380.059 669.368,379.961 669.35,380.082C669.426,380.096 669.831,380.19 669.848,380.071ZM686.274,377.215C686.106,377.204 686.038,377.153 685.776,377.18C685.577,377.317 686.315,377.299 686.274,377.215ZM676.819,375.467C676.542,375.452 676.143,375.371 676.073,375.532C676.29,375.5 676.803,375.573 676.819,375.467ZM679.555,375.112C679.266,375.118 678.975,375.123 678.684,375.133C678.758,375.362 679.377,375.223 679.555,375.112ZM669.725,375.493C669.276,375.479 668.102,375.221 667.362,375.549C668.213,375.512 668.854,375.637 669.725,375.493ZM666.614,375.664C666.102,375.286 664.094,375.58 663.489,375.637C663.938,375.612 663.737,375.758 663.877,375.778C664.397,375.606 665.163,375.596 665.743,375.735C666.036,375.711 666.211,375.647 666.614,375.664ZM662.633,375.614C662.602,375.643 661.215,375.661 661.389,375.743C661.934,375.694 662.09,375.805 662.633,375.76C662.651,375.704 662.854,375.647 662.633,375.614ZM661.389,370.727C662.475,370.694 664.592,370.916 665.249,370.586C663.719,370.557 662.202,370.608 661.389,370.727ZM658.901,377.248C658.475,377.256 658.032,377.254 657.905,377.37C658.905,377.5 660.045,377.606 661.213,377.608C661.145,377.577 661.084,377.532 661.042,377.469C661.2,377.53 661.559,377.371 661.553,377.61C661.995,377.602 662.44,377.58 662.881,377.539C662.03,377.18 659.625,377.825 658.901,377.248ZM663.627,376.506C663.276,376.44 663.1,376.577 662.758,376.483C662.604,376.645 663.6,376.579 663.627,376.506ZM660.891,379.465C661.709,379.58 663.049,379.618 663.899,379.479C663.836,379.471 663.776,379.459 663.717,379.448C662.792,379.452 661.905,379.36 660.891,379.465ZM663.254,378.59C664.797,378.629 666.776,378.746 668.231,378.662C667.922,378.664 668.196,378.5 668.231,378.469C667.698,378.452 667.43,378.534 667.237,378.639C666.715,378.45 664.233,378.407 663.254,378.59ZM665.493,379.405C665.26,379.34 664.602,379.368 664.42,379.481C664.432,379.493 664.446,379.502 664.458,379.514C664.434,379.512 664.413,379.51 664.391,379.51C664.387,379.516 664.375,379.522 664.374,379.528C664.848,379.524 665.28,379.502 665.493,379.405ZM660.766,379.422C660.299,379.34 660.01,379.51 659.395,379.407C659.438,379.567 659.813,379.588 660.143,379.631C660.446,379.596 660.784,379.575 660.766,379.422ZM659.149,379.508C659.053,379.409 658.229,379.385 657.78,379.493C657.924,379.498 658.133,379.477 658.151,379.534C658.153,379.582 658.051,379.594 658.028,379.633C658.639,379.606 658.911,379.707 659.149,379.508ZM657.78,376.12C657.682,376.014 658.749,376.094 658.278,376.01C657.547,376.045 658.178,375.891 658.155,375.772C657.731,375.768 657.143,375.832 656.911,375.754C656.973,376.037 657.729,375.934 657.78,376.12ZM657.53,379.596C657.329,379.61 657.141,379.596 656.963,379.58C657.057,379.604 657.153,379.631 657.247,379.657C657.346,379.641 657.44,379.621 657.53,379.596ZM656.702,382.524C654.217,382.293 651.403,382.489 649.061,382.221C647.547,382.049 645.987,381.993 644.477,382.032C644.625,382.082 644.803,382.12 645.086,382.114C644.528,382.334 643.741,382.096 643.387,382.258C647.903,382.625 651.79,382.33 655.411,383.067C655.891,383.055 656.354,383.045 656.784,383.037C657.547,383.024 658.309,383.016 659.069,383.008C658.731,382.95 658.383,382.862 658.028,382.776C657.153,382.856 656.842,382.661 657.875,382.739C657.483,382.645 657.09,382.559 656.702,382.524ZM656.038,383.2C656.032,383.2 656.03,383.202 656.026,383.204C656.518,383.321 657.002,383.461 657.483,383.625C657.711,383.625 657.936,383.629 658.151,383.631C658.706,383.643 659.379,383.596 659.768,383.498C660.086,383.487 659.92,383.528 659.893,383.588C660.733,383.473 661.627,383.526 662.581,383.565C662.145,383.471 661.739,383.338 661.403,383.166C661.356,383.168 661.309,383.17 661.262,383.17C659.733,383.235 657.729,383.309 656.038,383.2ZM655.903,383.633C655.844,383.621 655.786,383.61 655.729,383.59C655.715,383.606 655.7,383.621 655.686,383.637C655.758,383.637 655.831,383.633 655.903,383.633ZM643.03,369.03C643.76,368.942 644.571,368.932 645.358,369.016C645.194,368.965 645.02,368.926 644.85,368.885C644.139,368.893 643.397,368.805 643.098,368.661C643.276,368.664 643.44,368.666 643.6,368.668C642.036,368.491 640.377,368.594 638.913,368.661C637.784,368.069 636.09,367.602 634.92,368.502C632.299,368.805 630.67,368.088 628.127,368.334C627.801,368.301 628.094,368.414 628.03,368.631C627.508,368.227 627.665,368.569 627.012,368.592C628.43,368.895 630.208,369.194 631.252,368.862C631.434,368.801 631.668,368.946 631.866,369.034C631.991,369.034 632.11,369.039 632.231,369.041C632.362,368.959 632.485,368.811 632.614,368.813C632.821,368.815 633.081,368.842 633.336,368.877C633.446,368.862 633.577,368.871 633.768,368.932C633.766,368.936 633.764,368.936 633.764,368.936C633.833,368.946 633.907,368.957 633.969,368.967C634.038,368.977 634.104,368.985 634.172,368.995C636.223,368.996 638.247,369.004 640.241,369.014C640.438,368.983 640.641,368.955 640.854,368.936C640.963,368.918 641.02,368.957 641.057,369.018C641.719,369.022 642.375,369.026 643.03,369.03ZM640.713,381.995C640.635,381.832 640.354,381.893 640.149,381.87C640.182,381.914 640.223,381.952 640.27,381.981C640.424,381.985 640.573,381.989 640.713,381.995ZM639.807,381.957C639.735,381.862 639.598,381.883 639.299,381.838C639.288,381.889 639.29,381.928 639.297,381.961C639.461,381.965 639.625,381.971 639.788,381.973C639.793,381.967 639.803,381.963 639.807,381.957ZM638.731,381.938C638.518,381.664 637.897,381.838 637.497,381.772C637.834,381.864 638.266,381.912 638.731,381.938ZM626.684,368.278C625.485,368.467 624.543,368.362 623.28,368.446C623.458,368.541 623.811,368.627 624.227,368.678C624.602,368.649 624.776,368.702 625.057,368.709C625.04,368.715 625.016,368.719 624.997,368.725C625.698,368.727 626.395,368.608 626.684,368.278ZM627.627,366.573C627.895,366.588 628.163,366.602 628.432,366.616C628.674,366.59 628.885,366.551 629.04,366.491C628.481,366.551 628.036,366.518 627.627,366.573ZM629.788,366.569C629.956,366.631 630.657,366.641 630.659,366.5C630.491,366.44 629.79,366.43 629.788,366.569ZM630.782,366.545C631.045,366.604 631.471,366.684 631.528,366.481C631.309,366.514 630.797,366.44 630.782,366.545ZM631.653,366.524C631.745,366.557 632.262,366.629 632.151,366.465C631.963,366.477 631.692,366.457 631.653,366.524ZM665.493,376.704C666.084,376.543 666.842,376.799 667.362,376.659C667.467,376.43 666.36,376.528 666.118,376.594C665.756,376.475 664.756,376.5 664.375,376.537C663.68,376.528 665.336,376.604 665.493,376.704ZM667.485,376.608C667.694,376.731 668.778,376.727 668.979,376.571C668.29,376.588 667.981,376.495 667.485,376.608ZM665.12,385.055C665.6,385.037 666.211,385.067 666.364,384.928C665.954,385.079 665.256,384.858 665.12,385.055ZM666.862,385.012C667.047,385 667.321,385.018 667.358,384.952C667.165,384.938 667.252,384.803 666.862,384.87L666.862,385.012ZM660.583,385.791C660.512,385.801 660.442,385.805 660.372,385.811C661.303,385.801 662.426,385.754 663.252,385.825C663.202,385.918 662.768,385.875 662.879,386.028C663.395,386.069 664.235,386.157 664.62,385.985C664.221,385.817 663.819,385.954 663.5,385.77C663.667,385.766 663.833,385.76 664,385.756C663.674,385.483 662.034,385.418 661.633,385.719C661.282,385.643 660.885,385.661 660.444,385.69C660.489,385.723 660.538,385.752 660.583,385.791ZM662.008,385.903C661.573,385.905 661.209,385.934 661.012,386.022C661.389,385.998 661.979,386.053 662.008,385.903ZM661.508,387.842C661.86,387.838 662.889,387.856 662.754,387.811C662.655,387.805 662.608,387.776 662.629,387.719C662.081,387.768 661.612,387.596 661.508,387.842ZM665.864,388.221C666.581,388.327 667.073,388.118 667.483,388.276C667.545,388.205 667.665,388.151 667.731,388.079C667.102,388.125 666.79,387.991 666.487,388.157C666.573,387.993 666.278,387.985 665.989,387.975C665.885,388.036 665.825,388.108 665.864,388.221ZM665.989,387.493C666.434,387.487 666.709,387.551 667.108,387.563C667.145,387.463 667.446,387.461 667.483,387.362C666.887,387.37 666.356,387.403 665.989,387.493ZM667.233,387.848C667.413,387.948 668.084,387.983 668.104,387.782C667.571,387.842 667.471,387.784 667.233,387.848ZM668.104,388.166C668.038,388.239 667.979,388.225 667.854,388.364C668.036,388.334 668.499,388.407 668.477,388.303C668.395,388.303 668.311,388.305 668.229,388.305C668.149,388.204 668.581,388.147 668.104,388.166ZM668.477,388.784C668.29,388.797 668.018,388.778 667.979,388.844C668.219,388.817 668.514,388.979 668.477,388.784ZM668.975,387.131C668.397,387.147 668.11,387.268 667.854,387.401C668.256,387.541 669.417,387.381 668.852,387.233C669.256,387.198 670.182,387.371 670.967,387.229C670.788,387.196 670.932,387.004 670.965,386.987C670.973,387.018 670.985,387.045 671.09,387.032C671.108,386.836 669.928,386.772 669.721,386.969C669.852,387.077 670.61,386.924 670.717,387.041C670.407,387.08 669.821,387.12 669.1,387.129C669.12,386.973 668.903,387.01 668.477,386.952C668.358,387.129 669.036,386.979 668.975,387.131ZM671.588,386.973C672.006,386.932 672.745,387.006 672.958,386.893C672.588,386.762 671.899,386.83 671.588,386.973ZM673.331,386.883C673.627,386.846 674.235,386.922 674.327,386.809C674.028,386.791 673.448,386.758 673.331,386.883ZM663.622,392.325C663.905,392.282 664.594,392.389 664.495,392.205C664.143,392.223 663.641,392.186 663.622,392.325ZM663.997,389.954C664.37,389.942 664.692,390.049 665.118,389.926C664.676,389.922 664.217,389.786 663.997,389.954ZM665.491,389.965C666.547,389.895 667.731,390.1 668.477,389.893C667.454,389.942 666.127,389.778 665.491,389.965ZM669.098,389.926C670.266,389.991 672.284,390.11 673.579,389.819C672.264,389.967 670.495,389.735 669.098,389.926ZM673.704,390.539C674.295,390.563 674.256,390.547 674.823,390.561C674.831,390.498 674.983,390.489 674.948,390.412C674.774,390.414 674.674,390.442 674.575,390.469C674.327,390.475 674.415,390.34 674.077,390.385C674.114,390.495 673.717,390.446 673.704,390.539ZM673.081,390.504C672.844,390.532 672.331,390.455 672.459,390.616C672.68,390.584 672.975,390.579 673.081,390.504ZM671.961,391.061C669.895,391.118 667.184,391.041 665.739,391.309C668.479,391.194 669.997,391.336 671.961,391.061ZM657.938,395.336C658.125,395.358 658.346,395.348 658.397,395.297C658.284,395.287 658.202,395.266 658.114,395.245C658.057,395.28 657.997,395.307 657.938,395.336ZM658.397,394.428C658.741,394.403 659.27,394.545 659.516,394.401C659.268,394.387 658.594,394.303 658.397,394.428ZM659.391,394.983C659.2,395.135 660.204,395.112 660.014,394.969C659.807,394.973 659.598,394.977 659.391,394.983ZM661.133,395.037C662.86,395.012 665.375,395.084 666.733,394.901C664.331,395.01 663.225,394.86 661.133,395.037ZM659.266,395.178C658.938,395.188 658.534,395.17 658.52,395.293C658.778,395.256 659.385,395.352 659.266,395.178ZM663.872,394.055C664.034,394.057 664.772,394.041 664.37,393.995C664.204,393.991 663.469,394.01 663.872,394.055ZM667.979,394.92C668.252,394.934 668.653,395.016 668.723,394.854C668.504,394.885 667.993,394.813 667.979,394.92ZM676.19,394.868C676.395,394.854 677.317,394.864 676.936,394.801C676.731,394.811 675.811,394.801 676.19,394.868ZM622.51,368.514C622.584,368.629 622.667,368.553 622.93,368.631C623.024,368.272 622.571,368.44 622.51,368.514ZM622.35,365.539C621.612,365.551 620.87,365.565 620.122,365.588C620.188,365.602 620.252,365.612 620.317,365.614C620.971,365.645 621.665,365.573 622.35,365.539ZM621.834,368.387C619.889,368.168 618.057,368.586 615.887,368.356C615.817,368.346 615.752,368.327 615.688,368.309C615.2,368.301 614.7,368.297 614.192,368.293C614.192,368.358 614.188,368.422 614.186,368.489C614.331,368.491 614.477,368.493 614.62,368.495C614.971,368.487 615.333,368.471 615.713,368.448C616.452,368.403 617.2,368.471 617.936,368.551C618.917,368.573 619.913,368.6 620.94,368.643C621.25,368.594 621.549,368.514 621.834,368.387ZM610.784,449.954C610.79,449.713 610.803,449.455 610.819,449.188C610.795,449.368 610.774,449.547 610.752,449.727C610.762,449.801 610.772,449.879 610.784,449.954ZM608.075,533.996C608.075,533.715 608.01,533.498 607.85,533.373C607.852,533.655 607.915,533.87 608.075,533.996ZM606.815,448.657C606.815,448.657 606.829,448.577 606.844,448.457C606.836,448.028 606.834,447.6 606.84,447.174C606.819,447.137 606.792,447.12 606.758,447.123C606.858,447.381 606.592,448.567 606.815,448.657ZM606.485,499.305C605.991,499.504 606.127,499.182 605.772,499.059C605.831,500.85 605.729,501.795 606.03,503.293C606.11,501.502 607.141,501.079 606.485,499.305ZM605.081,456.034C605.004,455.778 605.141,455.704 605.161,455.53C605.147,455.479 605.135,455.432 605.125,455.383C604.936,455.301 604.745,455.221 604.834,454.868C604.895,454.866 604.983,454.922 605.061,454.967C605.051,454.862 605.043,454.756 605.04,454.653C604.872,454.467 604.737,454.307 604.62,454.424C604.725,454.018 604.715,453.586 604.69,453.145C604.657,453.086 604.622,453.026 604.581,452.967C604.512,453.092 604.459,453.223 604.417,453.356C604.346,454.647 604.241,455.922 604.026,457.426C604.534,457.092 604.149,456.014 605.081,456.034ZM600.495,524.709C600.495,524.428 600.43,524.211 600.27,524.089C600.297,524.34 600.206,524.709 600.495,524.709ZM600.239,523.186C600.284,523.503 600.262,523.647 600.358,523.723C600.438,523.655 600.604,523.089 600.239,523.186ZM600.418,522.636C600.284,521.998 600.52,521.558 600.163,521.204C600.272,521.659 600.004,522.477 600.418,522.636ZM600.202,519.487C600.217,519.636 600.176,520.303 600.321,520.024C600.303,519.871 600.348,519.204 600.202,519.487ZM596.825,453.641C596.532,453.237 596.338,452.573 596.504,452.002C596.729,452.256 596.813,452.645 596.846,453.08C596.868,452.577 596.893,452.069 596.932,451.557C596.471,450.516 596.772,449.549 596.659,448.026C596.858,448.344 597.01,448.789 597.108,449.28C597.131,448.946 597.151,448.61 597.167,448.268C597.032,447.291 596.952,446.28 596.956,445.215C596.616,445.137 596.811,445.502 596.772,445.674C596.647,445.243 596.374,443.688 596.903,443.774C596.372,443.448 596.534,442.059 596.616,441.438C596.836,441.442 596.672,441.819 596.735,441.977C597.147,441.479 596.762,440.567 596.758,439.901C596.641,439.916 596.682,440.065 596.668,440.174C596.127,439.375 596.305,437.77 596.127,436.403C595.475,440.871 596.479,445.889 596.446,450.381C595.94,450.25 595.723,449.834 595.633,449.338C595.569,450.746 595.428,452.196 595.344,453.616C595.407,454.059 595.471,454.463 595.506,454.838C595.438,454.668 595.372,454.485 595.311,454.295C595.295,454.635 595.286,454.975 595.282,455.309C595.526,455.43 595.547,456.065 595.29,456.106C595.303,456.573 595.334,457.03 595.387,457.475C594.928,458.373 595.108,460.043 595.618,460.987C595.645,459.403 596.354,458.198 596.571,456.889C596.743,455.852 596.784,454.76 596.825,453.641ZM595.561,516.319C595.29,516.917 595.958,516.858 595.561,516.319ZM594.28,525.121C594.247,526.008 593.926,526.866 594.467,527.461C594.637,526.807 594.526,525.407 594.28,525.121ZM594.024,529.012C594.217,529.014 593.864,529.371 594.239,529.366C594.311,529.157 594.104,528.764 594.024,529.012ZM594.303,523.043C594.305,522.615 594.571,521.543 594.034,521.159C594.098,521.818 593.706,522.733 594.303,523.043ZM593.954,518.995C594.235,518.998 594.233,518.764 594.239,518.534C593.922,518.504 593.924,518.74 593.954,518.995ZM594.147,516.1C593.975,515.787 594.303,515.534 593.918,515.386C593.807,515.73 593.987,515.85 593.846,516.11C593.946,516.108 594.047,516.102 594.147,516.1ZM590.596,452.959C590.592,452.871 590.596,452.776 590.604,452.676C590.258,452.254 590.336,451.633 590.256,451.092C590.079,451.811 590.149,452.573 590.596,452.959ZM590.213,456.133C589.905,457.352 589.75,458.536 589.856,460.028C590.237,459.006 590.182,457.159 590.213,456.133ZM587.893,526.262C587.739,526.403 587.834,526.633 588.008,526.709C587.95,526.58 588.108,526.239 587.893,526.262ZM587.858,525.36C587.881,524.996 587.274,525.243 587.336,524.836C587.45,523.426 587.911,522.425 587.407,521.315C587.342,520.996 587.754,521.079 587.688,520.764C587.549,519.647 587.53,518.702 587.368,517.524C587.309,517.11 587.217,516.496 587.213,516.086C587.211,515.901 587.479,515.73 587.495,515.534C587.51,515.305 587.176,514.917 587.26,514.641C587.594,513.53 587.295,511.643 586.993,510.137C586.969,510.83 586.627,510.664 587.034,511.219C586.815,511.286 586.704,510.977 586.735,511.323C586.487,514.022 587.206,515.75 586.903,518.537C586.002,519.779 586.467,521.576 587.061,522.772C586.969,524.932 586.799,527.485 587.417,529.62C587.258,528.034 587.424,526.356 587.858,525.36ZM586.411,497.161C586.463,497.577 586.713,497.912 586.754,498.323C586.987,500.629 586.569,502.573 586.79,504.639C587.549,502.821 586.719,500.424 586.848,498.137C586.926,496.768 586.924,495.629 586.807,494.348C586.663,492.752 586.973,490.993 586.627,489.481C586.42,488.567 585.766,487.752 585.729,486.897C585.709,486.5 585.975,486.045 585.983,485.625C585.991,484.793 585.461,482.442 585.231,481.68C585.055,482.86 585.276,484.379 585.493,486.002C585.674,487.366 585.672,488.725 585.643,490.061C585.606,491.772 586.34,493.5 586.436,495.174C586.475,495.854 586.333,496.537 586.411,497.161ZM585.209,456.68C586.061,456.391 585.77,455.686 585.749,454.944C585.69,453.129 586.28,450.75 586.325,448.875C586.575,448.77 586.731,449.284 586.727,448.86C586.723,448.741 586.719,448.62 586.713,448.5C586.557,448.479 586.317,448.668 586.104,448.342C585.889,449.071 586.104,449.653 586.077,450.33C586.055,450.924 585.581,451.455 585.645,452.151C585.78,453.7 585.407,455.057 585.209,456.68ZM585.565,396.967C585.567,396.989 585.569,397.01 585.571,397.03C585.625,397.028 585.68,397.028 585.733,397.024C585.735,397.006 585.739,396.987 585.743,396.967L585.565,396.967ZM585.663,363.481C585.721,363.473 585.782,363.465 585.84,363.457C585.852,363.354 585.862,363.25 585.875,363.145C585.807,363.147 585.739,363.149 585.67,363.151C585.668,363.262 585.667,363.371 585.663,363.481ZM585.67,363.051C585.743,363.051 585.813,363.049 585.885,363.047C586.047,361.725 586.295,360.332 586.325,359.143C586.575,359.036 586.731,359.549 586.727,359.127C586.723,359.006 586.719,358.887 586.713,358.768C586.557,358.745 586.317,358.936 586.104,358.61C585.889,359.336 586.104,359.92 586.077,360.596C586.055,361.192 585.581,361.721 585.645,362.416C585.663,362.633 585.67,362.842 585.67,363.051ZM590.557,363.178L590.596,363.178C590.575,362.321 591.223,361.022 590.596,360.518C590.088,361.36 589.975,362.612 590.557,363.178ZM594.319,341.696C594.516,341.965 594.456,341.293 594.811,341.407C595.975,343.444 596.114,347.159 594.905,349.346C595.377,350.493 594.922,351.686 594.942,353.045C594.958,354.133 595.436,355.25 595.569,356.454C595.817,358.61 595.528,361.059 595.372,363.442C595.862,363.471 596.352,363.502 596.838,363.539C596.866,362.854 596.895,362.157 596.961,361.454C597.247,358.379 597.377,354.686 597.1,351.612C596.735,347.584 597.233,341.914 596.01,338.563C593.426,338.463 594.491,340.612 594.319,341.696ZM598.807,359.76C598.827,360.303 598.848,360.844 598.868,361.383C599.178,361.133 599.336,359.912 598.807,359.76ZM599.915,362.518C599.637,363.977 600.209,362.928 599.915,362.518ZM604.395,364.008C604.499,364.01 604.602,364.012 604.706,364.012C604.725,363.137 604.491,362.188 604.895,361.342C604.833,360.686 604.549,360.243 604.625,359.455C604.69,359.159 605.159,359.252 604.905,358.903C604.43,358.827 605.12,359.233 604.614,359.186C604.52,361.034 604.485,362.516 604.395,364.008ZM604.893,358.631C605.723,359.356 605.147,360.971 605.514,361.77C605.495,360.495 606.405,358.717 605.749,357.248C605.278,357.553 604.961,357.989 604.893,358.631ZM606.815,358.922C606.821,358.926 607.042,357.344 606.758,357.391C606.858,357.647 606.592,358.832 606.815,358.922ZM610.784,360.217C610.836,358.286 611.305,355.166 610.645,353.815C610.211,355.799 610.506,358.225 610.784,360.217ZM599.997,452.666C599.977,452.645 599.963,452.618 599.942,452.596C599.907,452.661 599.874,452.717 599.842,452.772C599.813,453.182 599.967,452.961 599.997,452.666ZM599.852,453.248C599.737,453.912 599.424,454.825 599.831,455.414C599.819,454.735 600.118,453.848 599.852,453.248ZM599.934,363.813C599.917,363.709 599.891,363.608 599.852,363.516C599.836,363.606 599.817,363.702 599.795,363.799C599.842,363.803 599.887,363.809 599.934,363.813ZM585.53,396.62C585.627,396.62 585.723,396.621 585.821,396.621C585.86,396.489 585.905,396.352 585.936,396.217L585.487,396.217C585.489,396.235 585.491,396.25 585.493,396.268C585.508,396.385 585.516,396.502 585.53,396.62ZM587.034,505.803C586.954,505.522 587.03,505.434 586.917,505.358C586.84,505.42 586.674,505.903 587.034,505.803ZM586.678,509.789C587.344,509.172 587.151,506.77 586.846,506.172C586.762,507.516 586.868,508.514 586.678,509.789ZM590.667,450.323C590.713,450.739 590.758,451.159 590.799,451.579C590.891,451.077 590.926,450.608 590.667,450.323ZM594.09,514.568C594.11,514.362 594.053,514.23 593.875,514.215C593.903,514.373 593.793,514.67 594.09,514.568ZM594.092,517.365C594.122,517.537 593.989,517.569 594.006,517.731C594.29,517.865 594.27,517.331 594.092,517.365ZM594.411,523.222C594.067,523.164 594.032,523.582 594.323,523.584C594.35,523.464 594.461,523.409 594.411,523.222ZM595.723,447.157C595.706,447.106 595.672,447.098 595.639,447.112C595.641,447.141 595.643,447.168 595.643,447.198C595.661,447.176 595.682,447.159 595.723,447.157ZM617.655,365.704C618.032,365.723 618.409,365.713 618.786,365.655C618.799,365.653 618.815,365.647 618.829,365.637C618.442,365.655 618.049,365.678 617.655,365.704ZM557.358,396.334C556.475,396.393 555.645,396.174 554.995,396.295C555.754,396.286 556.977,396.645 557.358,396.334ZM556.116,397.186C554.768,397.211 554.458,396.752 553.129,397.016C552.655,396.733 551.7,396.936 550.887,396.973C551.258,397.006 550.6,397.053 550.764,397.17C551.436,397.239 551.995,397.391 552.629,397.366C552.618,397.057 554.327,397.434 554.747,397.121C554.581,397.35 555.76,397.17 555.245,397.399C555.747,397.438 556.256,397.426 556.612,397.366C556.221,397.399 556.262,397.252 556.116,397.186ZM624.313,364.676C624.397,364.711 625.053,364.786 624.934,364.614C624.754,364.647 624.292,364.573 624.313,364.676ZM626.801,365.002C625.899,364.983 625.422,364.981 624.561,364.912C624.774,365.198 626.17,365.157 626.801,365.002ZM628.293,364.58C628.059,364.596 628.02,364.534 627.797,364.543C627.596,364.684 628.334,364.664 628.293,364.58ZM646.336,367.329C646.62,367.334 646.803,367.305 646.833,367.219C646.612,367.237 646.209,367.186 646.336,367.329ZM671.096,369.914C671.875,370.045 672.004,369.858 672.838,369.969C672.887,369.787 672.739,369.688 672.34,369.69C672.073,369.924 671.315,369.705 671.096,369.914ZM674.083,369.745C673.938,369.741 673.95,369.67 673.958,369.604C673.877,369.606 673.792,369.606 673.709,369.61C673.274,369.67 674.098,369.858 674.083,369.745ZM676.571,372.241C676.805,372.213 677.321,372.289 677.192,372.129C676.883,372.129 676.678,372.166 676.571,372.241ZM687.022,371.121C687.417,371.055 688.432,371.246 688.639,370.985C688.26,370.987 686.797,370.95 687.022,371.121ZM698.967,374.016C698.09,374.368 695.487,374.159 694.735,374.309C693.208,374.432 690.596,374.473 689.012,374.641C690.915,374.813 692.92,374.424 694.487,374.653C692.967,374.856 690.27,374.649 688.639,374.94C688.094,374.627 687.446,375.014 686.649,374.891C686.502,374.903 686.543,374.983 686.524,375.039C686.258,374.94 685.92,374.87 685.278,374.926C685.258,375.116 685.469,374.905 685.653,375.012C684.815,375.1 683.159,374.881 682.293,375.237C681.944,375.182 681.549,374.965 681.049,375.123C681.008,375.252 681.747,375.061 681.547,375.256C681.366,375.332 680.911,375.313 680.551,375.329C680.282,375.233 680.567,375.172 680.676,375.084C680.407,375.2 680.252,375.053 679.805,375.104C679.848,375.217 679.885,375.329 680.303,375.286C679.25,375.463 678.188,375.418 677.067,375.508C677.301,375.411 676.993,375.422 677.067,375.268C677.469,375.282 677.801,375.424 678.063,375.245C675.793,375.108 672.118,375.303 669.85,375.442C672.512,375.598 674.44,375.438 675.948,375.344C675.473,375.877 674.069,375.715 672.34,375.864C670.905,375.989 669.309,375.969 668.231,376.059C668.323,376.012 668.458,375.981 668.606,375.954C665.778,375.914 662.051,375.846 659.397,376.08C661.399,376.2 662.344,376.084 664.002,376.209C663.586,376.121 663.903,376.108 664.375,376.104C664.622,376.209 664.344,376.159 664.25,376.25C665.215,376.133 665.563,376.262 666.489,376.053C666.547,376.155 666.313,376.149 666.118,376.159C668.084,376.586 671.153,376.399 674.206,376.446C672.928,376.631 671.756,376.461 670.348,376.537C670.065,376.573 670.499,376.61 670.223,376.686C669.842,376.666 669.87,376.479 669.227,376.565C668.958,376.655 669.965,376.807 669.6,376.942C669.196,376.858 668.594,376.903 668.731,377.059C668.493,377.059 668.643,376.903 668.356,376.924C668.241,376.961 668.168,377.016 668.108,377.075C667.928,377.067 668.065,376.932 667.86,376.936C667.561,376.924 667.928,377.153 667.487,377.088C667.45,377.014 667.602,377.004 667.61,376.942C666.622,377 666.209,376.995 665.37,376.996C665.555,377.049 665.721,377.108 665.868,377.176C665.249,377.389 664.743,377.344 664.002,377.512C664.11,377.354 663.811,377.366 663.627,377.327C663.151,377.299 663.481,377.563 663.006,377.536C663.372,377.58 665.596,377.854 665.618,377.569C666.969,377.838 668.608,377.741 670.471,377.645C670.456,377.481 669.602,377.514 670.223,377.36C669.674,377.516 667.891,377.559 667.112,377.485C667.325,377.233 667.762,377.405 668.231,377.411C669.231,377.264 670.499,377.143 670.969,377.489C670.948,377.543 670.743,377.534 670.596,377.543C671.223,377.752 672.711,377.434 673.333,377.577C671.983,377.827 670.459,377.696 668.977,377.825C669.92,377.983 671.577,377.848 672.463,378.032C671.102,378.254 668.35,378.129 666.489,378.27C666.84,378.475 667.651,378.291 668.604,378.412C668.758,378.565 668.202,378.459 668.354,378.612C668.68,378.811 670.463,378.737 670.596,378.606C671.108,378.571 670.475,378.739 670.967,378.743C671.465,378.676 671.77,378.473 672.338,378.516C672.295,378.713 672.012,378.52 671.715,378.627C674.45,378.713 678.172,378.715 681.172,378.688C681.424,378.686 681.446,378.59 681.545,378.584C682.186,378.536 682.846,378.694 683.413,378.684C684.875,378.653 686.971,378.252 687.766,378.577C682.475,378.842 676.85,379.194 671.342,379.164C671.096,379.205 671.01,379.303 670.967,379.418C670.678,379.411 670.897,379.207 670.967,379.176C670.362,379.155 670.075,379.147 669.848,379.346C669.225,379.227 667.653,379.266 667.112,379.268C666.745,379.319 667.399,379.334 667.237,379.457C667.09,379.33 665.981,379.235 665.743,379.446C665.866,379.58 666.075,379.37 666.241,379.483C663.051,379.737 660.692,379.705 657.792,379.807C658.098,379.893 658.405,379.979 658.711,380.065C659.76,380.049 660.737,380.022 661.387,379.985C662.526,379.92 661.87,380.041 661.137,380.088C660.725,380.116 659.895,380.116 658.993,380.143C659.379,380.25 659.764,380.352 660.151,380.454C660.438,380.463 660.692,380.495 660.891,380.577C660.825,380.58 660.76,380.584 660.698,380.59C660.833,380.623 660.965,380.655 661.1,380.688C661.172,380.704 661.243,380.717 661.313,380.731C662.108,380.746 662.93,380.719 663.254,380.567C663.516,380.94 666.28,380.459 666.987,380.864C665.194,380.901 663.799,380.916 662.461,380.93C663.186,381.053 663.899,381.209 664.551,381.627C663.42,381.606 662.149,381.239 660.883,380.946C659.928,380.955 658.934,380.969 657.78,380.991C657.793,381.047 657.79,381.094 657.782,381.137C657.946,381.149 658.124,381.153 658.276,381.168C658.12,381.198 657.938,381.213 657.75,381.219C657.68,381.334 657.526,381.42 657.329,381.543C658.301,382.438 660.032,382.073 661.034,382.594C661.012,382.616 660.991,382.629 660.969,382.649C661.133,382.662 661.299,382.653 661.387,382.59C661.532,382.758 661.235,382.727 660.905,382.704C660.735,382.842 660.551,382.94 660.356,382.996C660.643,382.995 660.932,382.991 661.219,382.989C661.678,382.944 662.131,382.94 662.569,382.973C663.506,382.963 664.442,382.95 665.368,382.926C664.827,383.036 664.172,383.08 663.467,383.108C664,383.225 664.491,383.403 664.907,383.651C664.368,383.735 663.774,383.733 663.202,383.666C662.493,383.694 661.801,383.682 662.133,383.778C659.967,383.932 658.448,383.87 656.411,383.916C656.168,384.014 656.54,384.106 656.534,384.25C656.241,384.241 656.301,384.088 655.911,384.12C655.749,384.141 655.715,384.209 655.538,384.225C656.229,384.323 657.352,384.26 658.17,384.246C658.141,384.196 658.116,384.139 658.09,384.084C658.26,384.071 658.381,384.11 658.415,384.245C658.495,384.245 658.577,384.245 658.649,384.246C658.584,384.293 658.506,384.321 658.418,384.336C658.418,384.358 658.422,384.375 658.42,384.401C658.352,384.403 658.303,384.381 658.264,384.354C657.952,384.371 657.551,384.311 657.157,384.379C657.375,384.481 657.856,384.477 658.026,384.598C658.715,384.432 659.549,384.754 659.645,384.465C659.758,384.623 660.569,384.7 661.135,384.524C662.811,384.803 665.309,384.246 667.358,384.422C666.344,384.508 666.047,384.549 664.62,384.584C665.092,384.809 666.838,384.508 667.108,384.815C667.422,384.67 667.981,384.618 668.727,384.631C669.124,384.702 668.12,384.662 668.106,384.741C668.477,385.016 669.389,384.803 669.846,384.844C668.674,385.284 666.262,384.901 664.745,385.256C664.27,385.11 664.079,385.077 663.625,385.186C663.807,385.032 663.409,384.922 662.504,384.975C662.395,385.131 662.913,385.032 663.002,385.106C662.19,385.246 660.965,385.229 659.647,385.239C659.866,385.33 660.077,385.436 660.274,385.565C661.913,385.399 663.94,385.309 665.741,385.475C665.495,385.692 664.778,385.444 664.372,385.604C664.403,385.662 664.62,385.647 664.62,385.598C665.02,385.643 664.5,385.737 664.247,385.704C664.364,385.889 664.875,385.729 665.243,385.727C664.75,385.848 665.709,386.016 665.12,386.02C665.098,386.125 665.559,386.03 665.741,386.053C664.256,386.241 662.682,386.11 660.887,386.411C663.981,386.536 668.95,386.403 672.459,386.373C672.53,386.264 672.581,386.248 672.958,386.217C673.329,386.465 674.881,386.678 675.448,386.446C676.975,386.582 679.741,386.266 681.667,386.44C681.008,386.565 678.512,386.582 678.059,386.817C678.811,386.448 676.68,386.92 676.815,386.606C675.479,386.926 673.827,386.819 672.084,387.202C671.85,387.186 671.549,387.198 671.588,387.069C671.403,387.116 671.321,387.198 671.338,387.317C670.01,387.42 668.807,387.452 667.854,387.592C668.432,387.737 669.481,387.493 669.969,387.59C669.815,387.883 668.959,387.633 668.231,387.729C668.098,388.053 668.983,388.172 668.85,388.34C671.336,388.405 673.11,388.481 675.694,388.368C675.838,388.358 675.799,388.278 675.819,388.221C676.151,388.213 676.088,388.368 676.44,388.35C676.329,388.168 678.331,388.391 679.303,388.186C679.315,388.276 679.715,388.207 679.678,388.321C679.965,388.297 680.155,388.319 680.299,388.354C680.723,388.305 681.008,388.409 680.422,388.399C680.133,388.407 679.842,388.414 679.551,388.42C679.411,388.434 679.483,388.471 679.553,388.467C676.692,388.662 674.155,388.698 670.965,388.916C670.643,388.825 670.252,388.76 669.969,388.651C669.704,388.655 669.114,388.786 669.473,388.856C667.688,389.207 665.747,388.678 664.743,389.26C664.483,389.252 664.924,389.127 664.62,389.071C663.754,389.016 663.237,389.075 662.754,389.258C662.563,389.026 661.057,389.233 661.633,389.334C660.36,389.479 659.68,389.123 658.274,389.416C658.338,389.375 658.403,389.334 658.399,389.268C658.245,389.295 658.092,389.301 657.944,389.307C657.872,389.36 657.797,389.411 657.721,389.455C660.696,389.52 663.573,389.573 667.108,389.588C667.874,389.592 668.889,389.459 669.223,389.682C669.499,389.704 669.401,389.586 669.596,389.577C671.211,389.625 672.868,389.51 674.202,389.561C674.706,389.58 675.723,389.59 675.819,389.813C675.219,389.743 674.721,389.817 674.2,389.901C675.801,389.998 677.655,389.754 679.551,389.819C679.26,390.127 677.51,389.778 676.938,389.979C678.071,390.116 680.006,389.93 681.293,390.114C678.383,390.221 676.93,390.479 673.081,390.746C673.057,390.883 673.502,390.83 673.331,391.03C673.124,391.1 672.602,391.008 672.084,391.059C672.608,391.202 673.956,391.108 675.071,391.037C674.942,390.912 674.301,390.998 674.2,390.866C674.456,390.797 674.844,390.776 675.071,390.698C675.456,390.836 675.856,390.707 676.317,390.764C676.229,390.914 676.229,390.86 676.315,391.004C677.153,390.907 677.049,391.037 677.809,390.969C677.868,391.186 676.956,391.045 677.063,391.276C675.19,391.157 672.073,391.426 670.217,391.491C671.465,391.528 673.055,391.559 674.2,391.395C674.368,391.471 674.752,391.455 674.946,391.522C676.342,391.371 678.577,391.407 680.545,391.336C681.184,391.315 682.233,391.149 682.165,391.444C681.309,391.286 681.116,391.627 680.42,391.727C680.317,391.743 680.176,391.643 680.049,391.639C679.799,391.631 679.29,391.797 679.178,391.803C678.821,391.823 678.477,391.637 678.307,391.873C675.606,391.944 671.532,392.25 668.6,392.252C667.848,392.252 666.635,392.059 666.61,392.301C666.122,392.358 666.295,392.141 665.737,392.227C665.75,392.561 662.047,392.264 660.387,392.596C659.633,392.358 657.579,392.561 657.153,392.672C658.756,392.612 660.143,392.868 661.508,392.713C661.963,392.704 661.836,392.93 662.504,392.834C660.315,393.114 658.239,393.209 655.725,393.397C655.502,393.434 655.276,393.465 655.045,393.491C655.088,393.602 655.311,393.639 655.411,393.727C657.85,393.768 660.588,393.641 662.377,393.946C662.846,393.959 662.946,393.993 663.125,393.83C663.69,394.114 665.678,393.807 666.36,394.041C666.583,394.051 666.616,393.991 666.485,393.991C667.559,394.036 670.366,394.022 672.084,394.047C672.034,394.209 671.395,394.151 671.213,394.262C671.049,394.061 669.967,394.231 669.221,394.313C669.247,394.274 669.346,394.26 669.346,394.211C667.727,394.379 666.766,394.204 664.868,394.368C664.627,394.354 664.333,394.364 664.37,394.237C662.325,394.461 661.401,394.213 659.639,394.399C660.991,394.502 662.772,394.426 664.12,394.532C664.069,394.649 664.346,394.629 664.245,394.768C664.739,394.772 664.87,394.641 665.366,394.647C665.37,394.651 665.204,394.743 665.241,394.746C666.528,394.881 668.553,394.549 669.471,394.787C669.797,394.795 669.569,394.598 669.967,394.631C670.024,394.846 671.696,394.774 671.711,394.637C674.258,394.787 676.862,394.557 679.051,394.651C678.502,394.93 677.985,394.651 677.186,394.795C680.956,394.952 683.875,394.707 687.014,394.75C683.094,394.973 679.721,395.149 675.442,395.172C672.831,395.188 670.061,395.286 667.977,395.161C667.235,395.118 666.067,395.237 665.241,395.082C663.272,395.284 662.133,395.008 659.764,395.215C659.817,395.272 659.924,395.309 660.139,395.301C659.471,395.506 658.625,395.444 657.649,395.455C657.104,395.641 656.461,395.7 655.813,395.754C655.788,395.78 655.762,395.801 655.737,395.829C659.081,395.758 662.467,395.635 665.612,395.7C664.528,395.934 663.784,395.739 662.5,395.825C662.456,395.909 662.6,395.912 662.75,395.914C661.172,395.954 658.536,396.051 657.151,396C657.049,396.174 656.672,396.245 656.032,396.221C655.899,395.996 656.497,396.307 656.405,396.067C656.125,396.055 655.831,396.036 655.524,396.022C654.52,396.825 653.209,396.555 651.958,396.606C651.354,396.627 650.731,396.907 650.077,396.932C647.491,397.034 645.252,397.108 642.68,396.944C633.022,396.321 623.575,397.243 614.192,396.45C614.215,396.604 614.231,396.762 614.254,396.916C614.184,399.914 614.524,402.981 614.797,406.102C615.692,416.291 614.708,426.547 615.344,437.041C615.508,439.772 615.434,442.149 615.333,444.897C615.307,445.59 615.028,446.252 615.006,446.893C614.956,448.237 615.231,449.643 614.397,450.711C614.331,454.371 614.141,458.086 614.135,461.743C614.127,465.213 614.333,468.698 614.012,472.036C613.569,476.719 613.524,481.856 614.254,486.651C614.184,489.649 614.524,492.715 614.797,495.836C615.692,506.026 614.708,516.284 615.344,526.776C615.508,529.504 615.434,531.883 615.333,534.629C615.307,535.325 615.028,535.985 615.006,536.627C614.952,538.088 615.286,539.627 614.153,540.721C614.086,541.625 614.004,542.518 613.641,543.176C613.237,542.762 612.973,541.801 612.862,541.129C612.485,538.844 612.745,536.161 612.381,533.567C611.915,536.18 612.202,538.969 611.665,541.354C611.143,539.479 611.426,537.188 611.256,535.774C610.895,538.502 610.356,541.393 610.553,543.922C610.157,543.219 609.879,542.399 609.659,541.52C609.192,543.145 609.874,545.522 609.754,546.75C609.124,546.442 609.264,545.59 609.186,544.967C609.065,544 608.956,542.973 608.766,541.733C608.627,542.848 608.497,541.799 608.44,541.114C608.186,541.92 608.01,542.793 607.417,543.317C606.442,539.457 607.024,534.973 606.874,531.422C607.276,531.627 607.536,531.967 607.616,532.481C607.696,529.62 607.975,527.827 607.747,525.162C607.717,524.821 607.428,524.725 607.223,524.551C607.149,523.487 607.444,522.94 607.131,522.118C607.264,522.144 607.295,522.27 607.438,522.287C607.584,520.194 607.458,518.05 606.911,516.168C607.125,514.94 607.288,513.125 606.657,512.024C606.27,512.079 606.303,512.137 606.051,511.957C605.516,514.264 605.895,517.167 605.743,519.912C605.59,522.667 606.217,526.262 606.004,529.651C605.887,531.512 606.217,533.194 606.211,535.239C606.209,536.229 605.948,537.225 606.018,538.135C606.129,539.606 606.637,541.061 606.182,542.551C605.635,542.645 605.795,542.053 605.747,541.664C604.872,542.657 605.473,544.153 605.399,545.83C604.743,544.674 605.352,543.83 604.581,542.7C604.086,543.612 604.336,544.686 604.192,545.784C602.823,544.051 603.329,541.131 602.727,538.799C602.651,539.549 602.479,540.221 601.989,540.631C602.239,541.358 601.891,542.321 602.178,542.969C600.444,538.053 601.196,532.795 600.555,526.332C600.362,528.616 600.364,531.139 600.624,533.551C600.891,536.037 600.692,539.026 600.924,541.664C601.071,543.34 602.047,545.151 600.995,546.264C600.473,545.202 600.838,543.364 599.942,542.33C599.684,542.772 599.594,543.012 599.051,542.635C598.704,544.922 599.989,547.731 600.028,550C599.35,548.875 599.358,547.582 599.088,546.336C598.292,542.672 596.936,539.223 596.956,534.95C596.616,534.871 596.811,535.237 596.772,535.409C596.647,534.975 596.374,533.42 596.903,533.508C596.372,533.18 596.534,531.793 596.616,531.174C596.836,531.176 596.672,531.551 596.735,531.709C597.147,531.211 596.762,530.301 596.758,529.633C596.641,529.651 596.682,529.799 596.668,529.907C596.127,529.11 596.305,527.504 596.127,526.135C595.475,530.604 596.479,535.621 596.446,540.116C595.221,539.799 595.686,537.811 595.528,537.08C595.635,537.053 595.59,536.897 595.723,536.891C595.682,536.766 595.547,536.889 595.526,536.991C595.51,535.348 594.874,534.133 594.93,531.776C594.588,531.989 594.862,532.707 594.467,532.877C594.417,532.129 594.385,531.893 594.405,531.162C594.598,531.194 594.428,531.577 594.817,531.42C594.989,530.332 594.737,529.338 594.596,528.178C594.333,528.631 594.512,529.287 594.452,529.719C594.231,529.776 594.301,529.553 594.143,529.551C593.469,532.979 594.079,537.182 594.864,540.807C594.717,541.131 595.208,540.846 595.174,541.065C595.147,542.528 595.42,543.639 595.506,544.573C594.95,543.184 594.616,541.096 594.108,539.389C593.948,540.262 593.961,541 594.094,541.737C593.897,541.707 594.002,541.387 593.682,541.481C593.147,541.547 593.739,542.088 593.417,542.393C592.881,542.631 592.965,541.541 592.475,541.436C591.764,537.938 591.235,534.055 590.743,529.946C590.381,529.934 590.528,530.348 590.362,530.502C589.801,529.621 589.952,528.286 590.45,527.52C590.155,523.594 590.051,520.405 589.831,516.17C588.885,519.511 589.76,524.043 589.467,528.098C589.325,528.424 589.811,528.139 589.778,528.358C589.524,533.805 590.598,538.002 590.913,542.666C590.17,542.252 590.375,541.393 590.237,540.705C590.073,539.885 589.594,539.161 589.448,538.389C589.385,538.059 589.543,537.704 589.51,537.393C589.45,536.807 589.065,536.278 588.946,535.7C588.526,533.647 588.62,531.506 588.311,529.405C587.856,529.159 587.938,529.995 587.739,530.239C587.575,530.118 587.469,529.936 587.418,529.707C586.815,531.454 587.295,533.616 587.133,535.586C587.116,535.801 586.745,536.008 586.954,536.225C586.534,536.258 586.586,535.834 586.334,535.705C586.469,535.237 586.43,534.621 586.581,534.162C585.637,530.5 585.424,526.698 585.442,522.472C585.465,516.24 584.688,509.883 584.85,503.899C584.879,502.899 584.829,501.883 584.831,500.651C584.456,501.248 584.514,502.325 584.719,503C584.303,507.633 585.079,514.654 584.631,519.615C584.571,520.269 585.295,521.256 584.508,521.693C584.454,520.912 584.295,520.43 584.536,519.706C583.887,515.297 584.204,510.799 583.936,506.28C583.874,505.215 584.059,504.073 584.016,503.028C583.999,502.625 583.752,502.17 583.77,501.772C583.774,501.655 584.038,501.522 584.055,501.401C584.374,499.221 583.249,497.039 583.917,494.909C583.377,493.643 583.165,491.459 583.428,489.871C584.459,493.743 584.127,497.243 584.727,500.563C584.776,496.832 584.815,492.844 583.997,489.037C583.618,489.098 583.774,489.608 583.211,489.518C582.116,481.819 581.444,475.047 581.784,467.278C581.881,465.03 582.848,462.309 583.01,459.741C583.25,455.938 583.155,451.787 583.879,447.973C584.364,448.252 583.928,449.422 584.25,449.856C585.012,449.424 584.338,448.493 584.375,447.774C584.428,446.709 584.977,445.809 585.793,445.375C585.993,445.588 586.184,445.807 586.127,446.266C586.217,446.184 586.288,446.086 586.358,445.989C586.35,445.985 586.344,445.977 586.334,445.973C586.415,445.69 586.436,445.354 586.471,445.03C586.161,444.403 585.719,443.903 585.323,443.36C585.295,443.631 585.256,443.918 585.264,444.207C585.145,443.827 585.079,443.395 585.038,442.942C585.024,442.92 585.01,442.899 584.997,442.879C584.682,441.78 584.733,440.893 584.379,439.743C584.122,438.901 583.719,438.069 583.676,437.061C583.592,435.161 584.389,433.098 584.067,431.358C583.801,429.926 582.981,428.883 582.821,427.524C582.78,427.196 582.995,426.873 582.983,426.524C582.961,425.827 582.493,425.116 583.006,424.448C582.752,424.112 582.952,423.549 582.846,422.83C582.801,422.536 582.62,422.225 582.618,422.026C582.6,421.155 583.055,420.198 583.114,419.209C583.215,417.444 583.028,415.498 583.215,413.789C583.381,412.27 583.393,409.985 583.208,408.194C583.163,407.766 582.836,407.375 582.76,406.946C582.563,405.868 582.567,404.715 582.137,403.721C581.983,403.37 581.627,403.223 581.795,402.651C580.905,401.141 580.448,399.569 581.213,397.797C581.747,397.45 582.282,397.245 582.848,397.133C582.84,397.071 582.833,397.008 582.823,396.946C580.649,396.938 578.586,396.954 576.77,397.024C576.604,396.981 576.526,396.901 576.272,396.891C572.985,397.079 569.417,396.705 566.692,396.832C566.446,396.844 566.299,396.836 566.319,396.938C566.03,396.911 565.889,396.827 565.696,396.762C562.622,396.893 560.53,396.743 557.981,396.899C558.059,397.012 558.747,396.871 558.852,396.973C558.518,397.289 556.915,397.051 556.364,397.178C556.565,397.352 557.143,397.373 557.358,397.541C557.817,397.424 556.987,397.442 557.11,397.305C558.581,397.305 559.543,397.352 561.215,397.35C560.737,397.526 561.317,397.504 561.465,397.537C561.62,397.522 561.59,397.438 561.465,397.442C561.559,397.436 562.264,397.512 562.336,397.565C562.145,397.596 562.329,397.616 562.461,397.61C558.684,397.772 552.778,397.508 548.524,397.366C548.543,397.311 548.75,397.321 548.897,397.309C548.567,397.147 547.879,397.254 547.528,397.2C547.323,397.354 548.151,397.319 547.778,397.387C546.538,397.063 545.1,396.991 543.297,397.11C544.557,396.559 549.02,396.975 549.645,396.618C550.137,396.752 551.165,396.666 552.008,396.659C551.975,396.461 551.194,396.575 550.887,396.491C551.893,396.481 552.719,396.342 554.249,396.313C554.36,396.295 554.881,396.204 554.497,396.162C555.788,396.233 557.504,396.104 559.102,396.245C560.266,396.346 561.516,396.764 562.461,396.598C562.547,396.58 562.579,396.452 562.586,396.45C563.389,396.368 563.821,396.438 564.452,396.309C566.413,396.469 569.92,396.36 572.292,396.36C572.379,396.489 571.706,396.34 571.793,396.469C573.075,396.463 574.489,396.641 576.272,396.651C577.368,396.657 578.743,396.549 579.631,396.618C579.831,396.631 579.95,396.746 580.131,396.75C580.987,396.762 581.895,396.694 582.786,396.647C582.766,396.5 582.749,396.354 582.729,396.205C574.756,396.161 566.813,395.985 558.852,395.961C555.333,395.95 551.846,395.991 548.401,395.875C548.334,395.838 548.272,395.801 548.276,395.735C545.913,395.717 543.907,395.981 542.055,395.883L542.055,395.741C541.338,395.766 540.606,395.78 539.862,395.786C537.645,395.912 535.354,395.996 533.106,395.995C533.075,396.051 533.043,396.108 532.971,396.151C532.581,396.129 532.293,396.063 532.03,395.987C530.098,395.961 528.209,395.868 526.448,395.676C523.856,395.393 522.452,393.036 521.424,391.055C521.11,390.452 520.63,389.901 520.543,389.514C520.294,388.442 520.682,387.207 520.747,386.106C520.77,385.709 520.667,385.297 520.703,384.899C520.906,382.707 521.895,380.096 522.213,378.225C522.396,377.135 522.479,375.508 522.346,374.411C522.202,373.213 521.443,372.577 521.083,371.651C520.906,371.198 520.69,370.403 520.551,369.821C520.271,368.645 520.559,367.698 520.502,366.401C520.44,365.004 520.547,363.909 521.221,362.813C522.887,362.047 524.37,362.504 525.792,363.397C526.331,363.225 526.467,363.582 526.799,363.735C527.737,364.166 528.821,364.162 529.836,364.358C530.241,364.436 530.61,364.762 531.012,364.807C532.698,364.993 534.85,364.981 536.28,364.815C537.891,364.625 539.723,364.815 541.385,364.713C542.118,364.668 542.833,364.379 543.504,364.264C543.522,364.246 543.542,364.231 543.559,364.213C543.584,364.221 543.602,364.233 543.622,364.245C543.762,364.227 543.901,364.213 544.036,364.215C544.225,364.219 544.518,364.403 544.795,364.446C545.04,364.483 545.268,364.481 545.473,364.477C545.883,364.45 546.29,364.426 546.688,364.409C546.864,364.358 547.043,364.358 547.223,364.383C548.625,364.325 549.959,364.282 551.272,364.125C551.68,364.381 554.202,364.321 555.379,364.264C554.383,364.162 553.356,364.071 552.268,364.002C553.653,363.912 554.833,364.098 556.25,364.051C555.944,364.262 555.887,364.166 556.25,364.342C555.932,364.514 555.272,364.565 554.756,364.666C555.598,364.748 556.225,364.649 556.997,364.661C557.024,364.424 556.413,364.672 556.499,364.481C556.606,364.342 557.17,364.371 557.618,364.358C558.711,364.633 560.377,364.444 561.85,364.399C564.135,364.33 566.754,364.35 568.817,364.088C569.2,364.213 569.768,364.075 569.938,364.205C570.946,364.145 572.094,364.162 572.549,364.045C575.424,364.059 579.241,364.086 582.833,364.059C582.981,364.026 583.127,363.993 583.274,363.959C583.286,363.709 583.301,363.459 583.317,363.209C582.024,363.235 580.774,363.241 579.643,363.2C579.194,363.229 579.471,363.116 579.768,363.149C581.161,363.139 582.196,363.12 583.323,363.096C583.422,361.454 583.581,359.817 583.879,358.241C584.364,358.52 583.928,359.688 584.25,360.121C585.012,359.69 584.338,358.758 584.375,358.041C584.428,356.975 584.977,356.075 585.793,355.643C585.993,355.854 586.184,356.075 586.127,356.532C586.344,356.334 586.452,356.045 586.706,355.879C586.366,354.745 585.553,354.069 584.997,353.145C584.682,352.045 584.733,351.161 584.379,350.01C584.122,349.168 583.719,348.334 583.676,347.327C583.592,345.426 584.389,343.366 584.067,341.625C583.801,340.192 582.981,339.149 582.821,337.789C582.78,337.461 582.995,337.139 582.983,336.791C582.961,336.092 582.493,335.383 583.006,334.715C582.752,334.379 582.952,333.815 582.846,333.096C582.801,332.801 582.62,332.491 582.618,332.291C582.6,331.42 583.055,330.463 583.114,329.475C583.215,327.711 583.028,325.766 583.215,324.055C583.381,322.537 583.393,320.25 583.208,318.459C583.163,318.034 582.836,317.641 582.76,317.213C582.563,316.133 582.567,314.981 582.137,313.987C581.983,313.633 581.627,313.491 581.795,312.916C580.905,311.407 580.448,309.834 581.213,308.065C582.307,307.348 583.405,307.233 584.801,307.299C586.098,307.36 587.043,307.055 588.221,307.352C588.805,307.5 589.598,307.729 590.051,307.916C590.977,308.299 591.616,309.104 592.811,309.258C593.909,309.399 595.536,309.313 596.625,309.118C598.497,308.78 601.108,307.729 603.299,307.514C603.698,307.475 604.11,307.584 604.506,307.561C605.608,307.491 606.842,307.08 607.915,307.344C608.301,307.436 608.854,307.946 609.456,308.278C611.436,309.371 613.792,310.862 614.077,313.614C614.618,318.899 614.387,325.231 614.008,330.766C613.94,331.77 613.721,333.463 613.577,335.295C613.153,340.563 614.229,345.389 614.032,350.35C613.93,352.922 614.407,355.401 614.422,358.1C614.432,360.143 614.377,362.211 614.313,364.289C616.266,364.155 618.749,364.272 621.204,364.27C620.893,364.479 619.538,364.307 619.211,364.508C618.848,364.313 618.35,364.461 617.717,364.401C618.303,364.655 620.739,364.44 621.948,364.686C622.893,364.34 626.147,364.895 626.803,364.182C627.307,364.321 627.696,364.213 628.293,364.147C629.018,364.463 630.657,364.037 630.784,364.375C631.286,364.334 631.334,364.125 631.778,364.061C631.504,364.182 631.801,364.336 631.903,364.446C632.614,364.381 633.012,364.549 633.77,364.303C633.749,364.36 633.795,364.389 633.893,364.397C633.604,364.621 632.469,364.541 632.151,364.536C632.143,364.754 631.618,364.655 630.782,364.713C630.836,364.985 629.469,364.85 629.911,365.12C629.208,365.137 628.5,365.155 627.797,365.17C627.983,365.225 628.1,365.303 628.418,365.303C626.577,365.459 624.842,365.496 623.112,365.526C623.202,365.528 623.292,365.53 623.379,365.536C627.637,365.803 631.872,365.487 636.024,366.135C636.706,365.895 637.161,366.053 637.895,366.108C637.483,366.895 636.551,366.17 635.936,366.231C635.604,366.262 635.256,366.287 634.905,366.309C635.114,366.33 635.315,366.354 635.51,366.383C635.04,366.358 634.917,366.457 634.514,366.455C634.571,366.514 634.674,366.551 634.889,366.543C633.657,366.672 631.981,366.725 630.524,366.737C631.395,366.787 632.266,366.838 633.139,366.883C633.756,366.87 634.323,366.827 634.764,366.739C634.909,366.793 634.915,366.891 634.797,366.959C635.073,366.971 635.348,366.981 635.624,366.991C636.043,366.981 636.426,366.961 637.002,366.973C638.879,366.532 641.307,367.461 643.35,366.87C643.295,366.973 643.436,366.996 643.475,367.061C643.805,367.051 643.743,366.901 644.096,366.899C646.163,367.237 648.737,366.942 650.815,367.172C649.563,367.327 648.354,367.162 646.831,367.317C646.774,367.428 647.508,367.448 647.581,367.346C647.788,367.329 647.674,367.442 647.737,367.485C647.27,367.491 646.801,367.493 646.331,367.496C647.45,367.666 648.551,367.883 649.637,368.18C650.069,368.03 650.647,368.069 651.09,367.934C651.211,368.188 651.612,368.131 651.579,368.555C651.374,368.344 651.18,368.715 650.977,368.733C649.12,368.895 647.086,368.414 645.442,369.018C645.475,369.026 645.508,369.037 645.54,369.049C648.973,369.077 652.313,369.108 655.543,369.131C664.057,369.196 672.672,369 682.17,368.922C678.661,369.215 675.844,369.305 672.588,369.444C672.79,369.737 674.497,369.389 674.831,369.729C674.67,369.883 674.237,369.635 674.208,369.84C674.374,369.914 674.76,369.901 674.954,369.965C675.096,369.952 675.024,369.914 674.954,369.918C678.807,369.993 684.997,369.704 689.76,369.561C689.038,369.903 687.303,369.6 686.649,369.924C681.838,369.922 675.374,370.34 670.598,370.455C669.764,370.477 668.836,370.258 667.987,370.569C667.338,370.424 666.6,370.536 665.495,370.532C665.481,370.875 668.668,370.7 670.1,370.709C670.45,370.758 670.709,370.844 671.221,370.829C671.391,370.776 671.167,370.748 671.471,370.676C672.321,370.989 673.772,370.586 674.581,370.893C675.713,370.543 676.762,371.065 678.065,370.662C681.665,370.666 686.051,370.508 690.008,370.278C692.233,370.147 694.5,369.829 696.479,370.073C693.606,370.219 691.512,370.647 688.764,370.838C688.766,370.903 688.766,370.967 688.766,371.03C688.991,371.18 689.516,370.911 689.76,371.055C688.393,371.299 686.491,371.256 685.403,371.496C685.383,371.635 686.219,371.418 686.028,371.627C685.512,371.58 685.495,371.621 684.784,371.657C684.665,371.475 685.268,371.446 684.907,371.317C684.338,371.268 683.463,371.233 683.29,371.502C683.12,371.43 683.192,371.231 682.293,371.379C682.532,371.432 682.629,371.51 682.168,371.528C682.672,371.61 683.186,371.686 683.663,371.782C683.215,371.866 682.7,371.784 682.045,371.87C681.934,372.026 682.452,371.926 682.542,372.002C680.663,371.92 679.725,371.996 677.442,372.123C677.436,372.205 677.534,372.246 677.69,372.262C677.573,372.397 676.661,372.241 676.696,372.43C677.426,372.612 679.045,372.282 679.805,372.549C680.26,372.537 680.717,372.526 681.174,372.516C681,372.629 680.309,372.555 679.93,372.592C678.243,372.692 676.797,372.551 675.823,372.741C675.864,372.807 676.135,372.774 676.321,372.778C676.188,372.905 675.604,372.821 675.577,372.746C675.579,373.295 677.629,373.063 678.686,373.106C678.161,373.594 676.075,373.006 675.577,373.422C675.217,373.377 674.805,373.354 674.331,373.358C673.907,373.33 674.172,373.557 673.708,373.516C672.397,373.248 671.223,373.438 669.229,373.432C669.036,373.608 669.651,373.45 669.602,373.567C673.247,373.532 676.655,373.498 679.059,373.627C679.241,373.549 679.694,373.571 680.053,373.555C680.727,373.618 681.483,373.852 681.797,373.561C681.969,373.575 681.805,373.647 681.672,373.661C682.891,373.565 684.702,373.756 686.151,373.649C686.268,373.821 685.661,373.729 685.403,373.764C685.985,373.946 688.077,373.575 688.514,373.93C689.35,373.852 690.036,373.848 690.381,374.079C692.374,374.168 694.182,374.006 696.106,373.989C696.407,373.92 696.62,373.821 696.977,373.774C697.665,373.95 697.944,374.059 698.967,374.016ZM675.448,376.85C675.083,376.793 674.625,376.829 674.331,376.924C674.905,376.866 675.229,377.014 675.448,376.85ZM674.704,376.53C675.325,376.512 675.856,376.608 676.196,376.446C675.581,376.53 674.856,376.336 674.704,376.53ZM674.329,378.516C674.549,378.5 674.952,378.549 674.827,378.407C674.543,378.401 674.36,378.43 674.329,378.516ZM690.881,370.932C690.588,370.938 690.299,370.948 690.008,370.954C689.959,371.198 690.688,371.014 690.881,370.932ZM643.475,364.024C643.192,364.014 643.008,364.043 642.977,364.131C643.198,364.114 643.6,364.162 643.475,364.024ZM642.729,364.041C642.438,364.047 642.147,364.053 641.856,364.061C641.696,364.215 642.887,364.19 642.729,364.041ZM626.428,364.241C626.19,364.225 626.204,364.108 625.805,364.159C625.811,364.227 625.747,364.266 625.68,364.305C625.899,364.274 626.413,364.346 626.428,364.241ZM640.985,364.082C640.508,364.079 638.577,363.903 637.875,364.157C639.125,364.131 640.227,364.352 640.985,364.082ZM647.083,363.983C646.526,364.08 646.102,363.924 645.838,364.108C646.217,364.053 647.1,364.182 647.083,363.983ZM637.254,364.075C637.065,364.022 636.18,364.006 636.008,364.104C636.456,364.108 636.797,364.186 637.254,364.075ZM668.231,379.338C668.135,379.508 669.256,379.426 669.352,379.36C668.68,379.368 668.831,379.338 668.231,379.338ZM666.987,381.539C666.668,381.403 666.034,381.45 665.743,381.569C666.176,381.522 666.682,381.692 666.987,381.539ZM558.987,363.215C556.358,363.258 551.961,363.274 549.157,363.645C551.846,363.686 556.381,363.364 558.987,363.215ZM647.581,366.817C647.254,366.844 646.897,366.858 646.708,366.934C647.042,367.024 647.182,366.969 647.456,367.01C647.495,366.948 647.633,366.914 647.581,366.817ZM643.225,366.68C643.413,366.733 643.749,366.836 643.846,366.664C643.54,366.735 643.243,366.573 643.225,366.68ZM566.454,363.276C566.26,363.202 565.874,363.272 565.708,363.342C566.026,363.37 566.278,363.399 566.454,363.276ZM648.825,363.989C648.227,363.989 648.377,363.959 647.706,363.969C647.608,364.139 648.731,364.057 648.825,363.989ZM567.823,362.76C567.76,362.641 568.393,362.862 568.446,362.696C568.333,362.594 567.434,362.696 567.823,362.76ZM567.948,361.889C567.584,361.952 567.069,361.955 566.827,362.061C567.29,362.082 567.153,362.077 567.7,362.09C567.606,361.957 567.946,361.985 567.948,361.889ZM560.108,362.272C559.926,362.276 559.09,362.278 559.485,362.334C559.668,362.329 560.502,362.329 560.108,362.272ZM558.987,362.346C558.243,362.215 558.377,362.539 558.987,362.346ZM571.307,363.159C571.235,363.276 570.5,363.157 570.559,363.321C570.891,363.327 571.668,363.248 571.307,363.159ZM581.51,361.659C581.184,361.829 580.276,361.789 580.016,361.985C580.678,362.159 581.661,361.78 581.51,361.659ZM570.434,363.18C570.151,363.174 569.967,363.202 569.938,363.287C570.221,363.295 570.407,363.264 570.434,363.18ZM623.565,364.213C623.237,364.221 622.834,364.204 622.819,364.327C623.151,364.319 623.551,364.336 623.565,364.213ZM575.163,363.114C574.674,363.129 574.229,363.159 573.918,363.241C574.297,363.184 575.182,363.313 575.163,363.114ZM637.377,366.58C637.573,366.651 638.043,366.577 638.247,366.51C637.991,366.545 637.43,366.471 637.377,366.58ZM676.45,366.748C676.372,366.721 675.858,366.647 675.827,366.762C675.903,366.787 676.417,366.86 676.45,366.748ZM667.241,366.776C667.448,366.766 668.366,366.776 667.987,366.709C667.78,366.721 666.86,366.709 667.241,366.776ZM680.803,367.219C680.61,367.147 680.221,367.213 680.055,367.287C680.276,367.254 680.788,367.327 680.803,367.219ZM655.047,364.659C654.415,364.565 653.528,364.575 652.682,364.573C653.024,364.727 654.877,364.748 655.047,364.659ZM673.584,367.104C673.731,366.895 672.752,366.991 672.715,367.127C673.147,367.1 673.186,367.043 673.584,367.104ZM679.186,367.549C679.745,367.514 679.973,367.278 679.434,367.205C679.206,367.274 678.885,367.434 679.186,367.549ZM682.545,368.914C682.932,368.735 683.346,368.778 683.665,368.647C683.375,368.52 683.252,368.625 682.668,368.621C682.526,368.682 682.528,368.797 682.545,368.914ZM693.993,366.614C693.805,366.625 693.532,366.606 693.495,366.672C693.661,366.733 693.958,366.725 693.993,366.614ZM693.247,363.448C693.301,363.452 693.172,363.496 693.124,363.5C692.008,363.577 693.967,363.489 693.247,363.448ZM685.032,368.756C685.336,368.563 686.292,368.604 686.651,368.43C686.165,368.34 685.692,368.614 684.909,368.569C684.879,368.659 685.049,368.672 685.032,368.756ZM678.811,366.786C680.774,366.598 683.313,366.621 685.157,366.391C682.827,366.551 680.647,366.467 678.811,366.786ZM681.301,364.461C681.317,364.387 681.856,364.467 682.047,364.344C681.774,364.348 680.838,364.35 681.301,364.461ZM671.471,367.205C672.364,367.6 674.629,367.036 675.704,367.344C675.893,367.168 675.278,367.325 675.327,367.207C676.022,367.098 676.723,367.245 677.194,367.018C674.899,367.102 673.192,367.315 671.223,367.162C671.075,367.237 670.909,367.305 670.723,367.368C671.225,367.405 671.276,367.278 671.471,367.205ZM662.014,364.635C660.958,364.641 660.196,364.565 659.401,364.651C660.051,364.682 661.75,364.764 662.014,364.635ZM661.391,367.11C660.979,367.112 660.852,367.024 660.645,367.176C660.956,367.204 661.157,367.211 661.391,367.11ZM653.801,364.254C653.534,364.219 653.377,364.141 652.93,364.18C652.891,364.313 653.653,364.358 653.801,364.254ZM658.157,367.477C658.032,367.645 659.09,367.571 659.151,367.5C658.75,367.522 658.625,367.428 658.157,367.477ZM658.282,364.629C657.542,364.62 655.708,364.522 655.172,364.704C655.647,364.731 657.661,364.731 658.282,364.629ZM667.116,364.512C666.28,364.625 665.805,364.436 665.374,364.602C665.936,364.639 667.028,364.651 667.116,364.512ZM666.616,367.176C666.807,367.293 667.985,367.45 668.235,367.186C667.745,367.194 666.848,367.118 666.616,367.176ZM665.374,367.256C665.008,367.174 664.323,367.135 664.004,367.287C664.551,367.209 665.032,367.409 665.374,367.256ZM661.641,366.575C659.508,366.633 658.006,366.245 656.042,366.612C657.479,366.612 659.778,366.584 661.516,366.721C661.512,366.655 661.575,366.614 661.641,366.575ZM661.266,369.088C661.69,368.883 662.487,369.112 663.01,368.95C662.672,368.875 660.483,368.912 661.266,369.088ZM663.506,367.204C663.182,367.123 663.133,367.233 662.76,367.174C662.586,367.33 663.504,367.278 663.506,367.204ZM663.01,366.735C663.319,366.733 663.612,366.729 663.631,366.621C663.415,366.641 663.01,366.5 662.883,366.639C662.981,366.647 663.03,366.678 663.01,366.735ZM691.874,378.141C691.649,378.268 690.719,378.141 690.629,378.315C691.12,378.315 692.209,378.284 691.874,378.141ZM681.049,369.481C679.782,369.692 679.264,369.155 678.563,369.444C679.196,369.495 680.555,369.686 681.049,369.481ZM671.338,395.659C671.653,395.6 671.977,395.809 671.958,395.596C671.778,395.625 671.315,395.557 671.338,395.659ZM688.264,376.829C688.03,376.858 687.516,376.784 687.643,376.942C687.938,376.836 688.223,377.026 688.264,376.829ZM691.002,378.016C690.727,378.02 689.792,378.02 690.256,378.131C690.182,378.026 691.118,378.248 691.002,378.016ZM579.135,398.557C578.952,398.704 579.69,398.686 579.506,398.549C579.383,398.551 579.258,398.555 579.135,398.557ZM689.756,381.809C689.092,381.856 688.1,381.786 687.641,381.909C688.137,381.909 689.309,381.971 689.756,381.809ZM700.088,369.504C700.096,369.748 700.569,369.584 700.711,369.489C700.502,369.495 700.295,369.498 700.088,369.504ZM665.368,383.555C665.879,383.526 666.745,383.633 666.987,383.467C666.483,383.51 665.663,383.434 665.368,383.555ZM556.624,362.452C556.022,362.491 555.122,362.42 554.883,362.59C555.407,362.524 556.502,362.666 556.624,362.452ZM667.731,383.834C667.809,383.846 668.211,383.944 668.229,383.823C668.155,383.809 667.752,383.713 667.731,383.834ZM690.008,372.495C690.194,372.483 690.467,372.502 690.506,372.436C690.34,372.375 690.043,372.383 690.008,372.495ZM694.735,374.6C695.02,374.629 695.217,374.657 695.483,374.532C695.262,374.567 694.752,374.493 694.735,374.6ZM698.967,372.907C697.112,373.036 694.43,372.981 692.87,373.246C694.737,373.094 696.95,373.147 698.967,372.907ZM675.827,369.606C675.506,369.62 675.233,369.647 675.079,369.721C675.448,369.883 677.053,369.889 676.821,369.631C676.727,369.643 675.909,369.795 675.827,369.606ZM691.999,373.17C691.143,373.311 690.487,373.036 690.258,373.309C691.067,373.274 691.713,373.44 691.999,373.17ZM647.954,367.483C647.881,367.483 647.809,367.485 647.737,367.485C647.764,367.5 647.819,367.508 647.954,367.483ZM697.348,377.912L697.348,378.106C697.43,378.104 697.514,378.102 697.596,378.098L697.596,377.907C697.514,377.909 697.43,377.911 697.348,377.912ZM689.385,373.282C689.633,373.309 689.918,373.436 690.008,373.266C689.758,373.243 689.477,373.114 689.385,373.282ZM679.805,373.176C679.913,373.28 680.618,373.383 680.926,373.245C680.366,373.329 680.245,372.983 679.805,373.176ZM686.401,371.666C686.276,371.668 686.151,371.672 686.026,371.676C685.844,371.821 686.583,371.803 686.401,371.666ZM681.299,373.332C681.555,373.297 682.116,373.373 682.168,373.262C681.719,373.299 681.375,373.045 681.299,373.332ZM690.502,378.319C690.004,378.352 688.913,378.289 688.512,378.461C689.172,378.551 690.258,378.412 690.502,378.319ZM547.28,398.168C548.067,398.229 549.069,398.612 549.768,398.399C548.979,398.338 548.096,398.059 547.28,398.168ZM543.547,397.295C542.219,397.508 540.375,397.278 539.317,397.637C541.512,397.688 543.448,397.67 545.538,397.873C546.043,397.922 546.709,397.948 547.28,397.928C546.12,397.684 544.633,397.571 543.547,397.295ZM550.639,398.329C550.973,398.399 552.176,398.575 552.506,398.332C551.727,398.426 551.086,398.209 550.639,398.329ZM546.284,396.698C546.381,396.686 546.53,396.69 546.534,396.645C541.616,396.475 536.297,396.563 530.979,396.633C530.731,396.639 530.483,396.645 530.235,396.651C529.69,396.664 530.213,396.733 530.483,396.694C535.524,396.688 541.196,396.666 546.284,396.698ZM552.133,398.873C552.319,398.866 552.641,399.039 552.754,398.905C552.569,398.911 552.245,398.739 552.133,398.873ZM571.918,397.721C572.106,397.774 572.989,397.787 573.163,397.688C572.774,397.696 572.18,397.651 571.918,397.721ZM554.372,398.53C554.206,398.452 553.667,398.53 553.5,398.454C553.465,398.58 554.407,398.711 554.372,398.53ZM540.698,363.125C544.625,363.098 549.713,363.063 552.145,362.655C547.504,362.879 542.252,362.914 538.333,362.797C537.977,362.957 537.28,362.993 536.963,363.166C538.149,363.231 539.346,363.135 540.698,363.125ZM664.745,384.051C665.29,384.229 666.522,384.114 666.489,383.914C666.231,384.016 664.907,383.711 664.745,384.051ZM547.415,363.686C547.292,363.69 547.167,363.694 547.042,363.696C546.86,363.84 547.598,363.823 547.415,363.686ZM544.057,363.866C543.991,363.938 543.872,363.991 543.807,364.063C544.084,364.092 544.319,363.873 544.057,363.866ZM554.01,362.563C553.5,362.586 552.993,362.612 552.641,362.692C552.924,362.704 553.815,362.723 554.01,362.563ZM564.825,398.325C564.59,398.34 564.549,398.278 564.327,398.289C564.127,398.428 564.862,398.409 564.825,398.325ZM565.821,397.625C565.432,397.577 565.03,397.276 564.452,397.465C564.961,397.565 564.006,397.524 564.202,397.664C565.446,397.748 567.413,397.789 568.557,397.752C567.442,397.733 566.342,397.495 565.768,397.487C565.915,397.504 566.079,397.616 565.821,397.625ZM569.055,398.414C569.444,398.475 570.098,398.393 570.299,398.385C569.874,398.34 569.34,398.278 569.055,398.414ZM571.668,398.496C571.903,398.471 572.418,398.543 572.292,398.385C571.981,398.385 571.774,398.424 571.668,398.496ZM564.202,397.231C564.016,397.245 563.743,397.223 563.704,397.291C563.872,397.35 564.168,397.342 564.202,397.231ZM569.303,397.686C569.461,397.489 568.463,397.522 568.309,397.614C568.875,397.541 568.797,397.735 569.303,397.686ZM555.493,398.887C556.118,398.887 556.563,398.948 557.11,398.85C556.803,398.83 556.418,398.848 556.114,398.727C556.174,398.879 555.543,398.778 555.493,398.887ZM562.709,398.28C562.317,398.354 561.958,398.178 561.838,398.301C562.061,398.293 562.563,398.412 562.709,398.28ZM558.106,398.582C558.014,398.692 558.565,398.772 558.604,398.666C558.407,398.651 558.497,398.518 558.106,398.582ZM562.336,398.772C562.618,398.778 562.803,398.748 562.834,398.662C562.614,398.678 562.211,398.627 562.336,398.772ZM559.723,398.543C559.686,398.672 559.981,398.662 560.221,398.676C560.221,398.612 560.219,398.549 560.219,398.483C559.987,398.479 559.946,398.543 559.723,398.543ZM668.176,382.473C667.338,381.914 666.022,381.879 664.891,381.641C665.639,382.258 667.188,382.432 668.176,382.473ZM646.891,366.463C644.081,366.229 641.413,365.938 638.573,366.135C638.561,366.213 638.579,366.26 638.606,366.295C638.417,366.289 638.213,366.274 637.999,366.225C638.036,366.444 638.612,366.438 639.168,366.44C640.879,366.717 642.77,366.364 645.018,366.588C645.667,366.655 646.483,367.155 646.891,366.463ZM633.532,362.016C633.53,362.116 633.526,362.219 633.522,362.315C633.635,362.321 633.749,362.325 633.862,362.329C633.897,362.067 633.754,361.996 633.532,362.016ZM648.215,366.952C648.495,366.995 648.883,367.024 649.075,366.926C648.989,366.928 648.897,366.918 648.803,366.903C649.006,366.881 649.217,366.858 649.428,366.862C648.84,366.67 648.139,366.604 647.397,366.584C647.6,366.881 647.885,366.955 648.215,366.952ZM596.09,457.073C596.073,456.842 596.016,456.643 595.87,456.539C595.936,456.723 595.731,457.172 596.09,457.073ZM580.417,427.329C580.397,427.563 580.467,427.713 580.729,427.676C580.725,427.557 580.721,427.438 580.717,427.317C580.618,427.321 580.516,427.323 580.417,427.329ZM595.356,456.198C595.356,456.477 595.42,456.698 595.579,456.821C595.584,456.536 595.563,456.278 595.356,456.198ZM583.973,352.639C583.833,351.582 584.258,350.914 583.786,350.301C583.838,350.914 583.483,352.059 583.973,352.639ZM596.254,450.659C596.27,450.985 596.225,451.371 596.485,451.461C596.487,451.071 596.624,450.832 596.254,450.659ZM613.159,543.739C613.036,544.006 613.098,544.336 613.29,544.541C613.235,544.315 613.624,543.75 613.159,543.739ZM602.485,543.139C602.467,543.377 602.538,543.528 602.801,543.489C602.809,543.262 602.635,543.213 602.485,543.139ZM596.09,546.807C596.073,546.575 596.016,546.379 595.87,546.274C595.936,546.457 595.731,546.905 596.09,546.807ZM606.659,522.946C606.653,523.17 606.657,523.383 606.879,523.391C606.827,523.222 606.995,522.842 606.659,522.946ZM583.973,442.373C583.833,441.317 584.258,440.649 583.786,440.036C583.838,440.647 583.483,441.791 583.973,442.373ZM596.254,540.391C596.27,540.719 596.225,541.106 596.485,541.196C596.487,540.807 596.624,540.567 596.254,540.391ZM602.051,550.377C602.254,548.991 601.983,547.272 601.397,546.338C601.239,547.852 601.465,549.33 602.051,550.377ZM595.356,545.932C595.356,546.211 595.42,546.432 595.579,546.555C595.584,546.27 595.563,546.01 595.356,545.932ZM594.499,541.813C594.559,541.94 594.399,542.282 594.616,542.258C594.741,542.147 594.645,541.916 594.499,541.813ZM600.874,553.85C600.833,552.799 600.659,551.157 600.042,550.36C600.282,551.561 600.315,552.959 600.874,553.85ZM587.645,530.42C587.581,531.092 587.665,531.563 587.909,532.127C587.772,531.735 588.321,530.647 587.645,530.42ZM584.985,531.786C585.004,532.573 585.071,533.317 585.264,533.94C585.245,533.084 585.612,532.237 584.985,531.786ZM584.989,529.258C584.741,526.627 585.2,524.457 584.739,522.496C584.713,522.428 584.651,522.395 584.536,522.414C584.338,525.43 584.629,528.264 584.864,531.248C585.557,530.813 585.055,529.946 584.989,529.258ZM596.872,543.438C596.864,542.758 596.833,542.106 596.504,541.737C596.329,542.336 596.551,543.043 596.872,543.438ZM580.417,517.063C580.397,517.295 580.467,517.448 580.729,517.412C580.725,517.289 580.721,517.17 580.717,517.051C580.618,517.053 580.516,517.059 580.417,517.063ZM595.12,545.037C595.213,545.258 595.27,545.516 595.252,545.844C595.606,545.864 595.522,544.889 595.12,545.037ZM597.372,546.127C597.297,546.752 597.555,547.631 597.657,548.373C597.952,547.737 597.661,546.739 597.372,546.127ZM597.25,545.59C597.305,545.082 597.176,544.084 596.875,543.62C596.93,544.344 596.817,545.233 597.25,545.59ZM597.913,549.901C597.907,549.405 597.877,548.938 597.667,548.643C597.495,548.979 597.668,549.668 597.913,549.901ZM607.168,525.815C607.209,526.088 607.084,526.522 607.395,526.53C607.303,526.307 607.563,525.745 607.168,525.815ZM597.104,541.625C597.405,540.489 597.209,538.645 596.659,537.76C596.784,539.444 596.399,540.448 597.104,541.625ZM594.502,531.071C594.342,530.952 594.2,530.616 594.377,530.444C594.696,530.594 594.442,530.719 594.502,531.071Z" style="fill:white;fill-rule:nonzero;"/>
        </g>
    </g>
</svg>
